<svg xmlns="http://www.w3.org/2000/svg" xmlns:xlink="http://www.w3.org/1999/xlink" width="722" height="312" viewBox="0 0 722 312" fill="none"><g opacity="1" transform="translate(0 0)  rotate(0 361 156)"><g opacity="1" transform="translate(0 81)  rotate(0 26 33)"><rect  id="矩形 1" style="stroke:#000000; stroke-width:1; stroke-opacity:1; stroke-dasharray:0 0" transform="translate(26 0)  rotate(0 13 33)" x="0.5" y="0.5" rx="0"  width="25" height="65" /><rect  id="矩形 1" style="stroke:#000000; stroke-width:1; stroke-opacity:1; stroke-dasharray:0 0" transform="translate(0 0)  rotate(0 13 33)" x="0.5" y="0.5" rx="0"  width="25" height="65" /><g opacity="1" transform="translate(26 0)  rotate(0 13 33)"><text><tspan x="9.352" y="20.856" font-size="12" line-height="0" fill="#000000" opacity="1" font-family="SourceHanSansCN-Regular" letter-spacing="0"  >A</tspan><tspan x="9.058" y="38.232" font-size="12" line-height="0" fill="#000000" opacity="1" font-family="SourceHanSansCN-Regular" letter-spacing="0"  >B</tspan><tspan x="9.172" y="55.608000000000004" font-size="12" line-height="0" fill="#000000" opacity="1" font-family="SourceHanSansCN-Regular" letter-spacing="0" >C</tspan></text></g><g opacity="1" transform="translate(0 0)  rotate(0 13 33)"><text><tspan x="4.9239999999999995" y="38.232" font-size="12" line-height="0" fill="#000000" opacity="1" font-family="SourceHanSansCN-Regular" letter-spacing="0" >Ws</tspan></text></g></g><g opacity="1" transform="translate(670 94)  rotate(0 26 33)"><rect  id="矩形 1" style="stroke:#000000; stroke-width:1; stroke-opacity:1; stroke-dasharray:0 0" transform="translate(26 0)  rotate(0 13 33)" x="0.5" y="0.5" rx="0"  width="25" height="65" /><rect  id="矩形 1" style="stroke:#000000; stroke-width:1; stroke-opacity:1; stroke-dasharray:0 0" transform="translate(0 0)  rotate(0 13 33)" x="0.5" y="0.5" rx="0"  width="25" height="65" /><g opacity="1" transform="translate(26 0)  rotate(0 13 33)"><text><tspan x="4.408000000000001" y="38.232" font-size="12" line-height="0" fill="#000000" opacity="1" font-family="SourceHanSansCN-Regular" letter-spacing="0" >We</tspan></text></g><g opacity="1" transform="translate(0 0)  rotate(0 13 33)"><text><tspan x="9.79" y="29.543999999999997" font-size="12" line-height="0" fill="#000000" opacity="1" font-family="SourceHanSansCN-Regular" letter-spacing="0"  >J</tspan><tspan x="9.124" y="46.92" font-size="12" line-height="0" fill="#000000" opacity="1" font-family="SourceHanSansCN-Regular" letter-spacing="0" >K</tspan></text></g></g><path id="箭头 1"  style="fill:#000000" transform="translate(52 33)  rotate(0 44 28.5)" opacity="1" d="M88.4951 -0.0699314Q88.4812 -0.16841 88.4306 -0.254069Q88.3801 -0.339728 88.3006 -0.399527L84.3053 -3.40581Q84.266 -3.43542 84.2216 -3.45678Q84.1772 -3.47814 84.1296 -3.49044Q84.0819 -3.50274 84.0327 -3.50549Q83.9835 -3.50825 83.9348 -3.50136Q83.886 -3.49447 83.8395 -3.47821Q83.793 -3.46194 83.7506 -3.43691Q83.7082 -3.41189 83.6715 -3.37907Q83.6348 -3.34626 83.6052 -3.30691Q83.5454 -3.22743 83.5206 -3.13113Q83.4957 -3.03482 83.5096 -2.93635L83.9436 0.135964Q82.934 0.307864 81.7936 0.510867Q74.2172 1.85959 66.9844 3.57855Q56.8528 5.98645 48.8532 8.79256Q38.8283 12.3091 32.7282 16.2604Q26.6237 20.2144 20.0486 27.4532Q14.8022 33.2294 9.49019 40.8285Q5.69845 46.2529 2.25153 52.0475Q1.17408 53.8588 0.259878 55.4907Q-0.198148 56.3083 -0.441328 56.765L0.441328 57.235Q0.679451 56.7878 1.13231 55.9794Q2.04019 54.3588 3.11097 52.5587Q6.5391 46.7958 10.3098 41.4015Q15.5853 33.8545 20.7889 28.1256Q27.2764 20.9831 33.2718 17.0997Q39.2718 13.2133 49.1843 9.73619Q57.1346 6.94733 67.2156 4.55145Q74.4205 2.83912 81.9689 1.49539Q83.0899 1.29583 84.0835 1.12653L84.4986 4.06522Q84.5125 4.1637 84.5631 4.24935Q84.6136 4.33501 84.6931 4.39481Q84.7726 4.45461 84.8689 4.47945Q84.9652 4.50428 85.0636 4.49037Q85.1621 4.47646 85.2478 4.42592Q85.3334 4.37538 85.3932 4.29591L88.3995 0.300629Q88.4593 0.221158 88.4842 0.124853Q88.509 0.0285472 88.4951 -0.0699314Z " /><path  id="箭头 1" style="stroke:#000000; stroke-width:1; stroke-opacity:1; stroke-dasharray:0 0" transform="translate(52 33)  rotate(0 44 28.5)" d="" /><path id="箭头 1"  style="fill:#000000" transform="translate(218 33)  rotate(0 226 43.500000000000014)" opacity="1" d="M9.35374 -0.497362Q3.33511 -0.485934 -0.00388565 -0.459985L0.00388565 0.539985Q3.33991 0.514059 9.35564 0.502636Q21.388 0.479788 34.7848 0.552336Q77.6541 0.784492 118.086 1.88357Q174.688 3.42218 218.328 6.47456Q272.859 10.2889 303.906 16.261Q334.924 22.2279 365.058 34.6925Q377.866 39.9906 390.309 46.3854Q401.197 51.9814 411.621 58.3217Q420.444 63.6881 428.703 69.4448Q435.312 74.051 441.264 78.6979Q445.283 81.8346 448.63 84.6954L446.638 86.8272Q446.604 86.8632 446.578 86.905Q446.552 86.9469 446.535 86.993Q446.517 87.0391 446.509 87.0877Q446.501 87.1363 446.503 87.1855Q446.505 87.2347 446.516 87.2827Q446.527 87.3306 446.548 87.3755Q446.568 87.4203 446.597 87.4603Q446.625 87.5003 446.661 87.5339Q446.734 87.6018 446.827 87.6368Q446.92 87.6717 447.02 87.6684L452.017 87.4997Q452.066 87.498 452.114 87.4868Q452.162 87.4756 452.207 87.4552Q452.252 87.4349 452.292 87.4061Q452.332 87.3774 452.365 87.3414Q452.399 87.3055 452.425 87.2636Q452.451 87.2218 452.468 87.1756Q452.485 87.1295 452.493 87.081Q452.501 87.0324 452.5 86.9831L452.331 81.986Q452.329 81.9368 452.318 81.8888Q452.307 81.8409 452.287 81.796Q452.266 81.7512 452.237 81.7112Q452.209 81.6712 452.173 81.6376Q452.137 81.6039 452.095 81.578Q452.053 81.552 452.007 81.5347Q451.961 81.5174 451.912 81.5094Q451.864 81.5015 451.814 81.5031Q451.715 81.5065 451.625 81.5476Q451.534 81.5888 451.466 81.6614L449.314 83.9642Q445.935 81.0756 441.88 77.9096Q435.906 73.2463 429.275 68.6244Q420.99 62.8499 412.14 57.4673Q389.623 43.7715 365.44 33.7684Q335.213 21.2651 304.094 15.279Q272.99 9.29559 218.397 5.477Q174.737 2.42315 118.114 0.883934Q77.6707 -0.215431 34.7902 -0.447649Q21.39 -0.520217 9.35374 -0.497362Z " /><path  id="箭头 1" style="stroke:#000000; stroke-width:1; stroke-opacity:1; stroke-dasharray:0 0" transform="translate(218 33)  rotate(0 226 43.500000000000014)" d="" /><path id="箭头 1"  style="fill:#000000" transform="translate(206 105)  rotate(0 38 35)" opacity="1" d="M76.4902 -0.0984643Q76.4706 -0.195972 76.4152 -0.278563Q76.3598 -0.361154 76.277 -0.416253L72.1145 -3.18631Q72.0317 -3.24141 71.9341 -3.26063Q71.8365 -3.27985 71.739 -3.26026Q71.6415 -3.24068 71.5589 -3.18527Q71.4763 -3.12986 71.4212 -3.04706Q71.3661 -2.96426 71.3469 -2.86668Q71.3277 -2.7691 71.3472 -2.67159L71.9655 0.406604Q71.2918 0.571079 70.5928 0.74812Q64.0428 2.40726 57.7899 4.52134Q49.0291 7.48331 42.1112 10.9348Q33.4384 15.2617 28.1613 20.1222Q22.8886 24.9786 17.213 33.863Q12.6855 40.9503 8.1013 50.2744Q4.82897 56.9302 1.85437 64.0398Q0.924588 66.2621 0.135981 68.2635Q-0.258989 69.266 -0.468235 69.8246L0.468235 70.1754Q0.674536 69.6246 1.06636 68.6301Q1.85115 66.6384 2.77688 64.4258Q5.73976 57.3442 8.9987 50.7156Q13.5582 41.4416 18.0557 34.4014Q23.6615 25.6263 28.8387 20.8578Q34.0116 16.0933 42.5576 11.8296Q49.4143 8.40868 58.1101 5.46866Q64.3261 3.36707 70.8384 1.71751Q71.5123 1.54679 72.1626 1.38786L72.7397 4.26101Q72.7494 4.30929 72.7683 4.35475Q72.7873 4.40021 72.8147 4.44111Q72.8421 4.482 72.877 4.51676Q72.9119 4.55152 72.9529 4.5788Q72.9939 4.60608 73.0395 4.62484Q73.085 4.6436 73.1333 4.65312Q73.1816 4.66264 73.2309 4.66255Q73.2801 4.66245 73.3284 4.65276Q73.4259 4.63317 73.5085 4.57776Q73.5911 4.52235 73.6462 4.43955L76.4163 0.277007Q76.4714 0.194209 76.4906 0.0966268Q76.5098 -0.000955175 76.4902 -0.0984643Z " /><path  id="箭头 1" style="stroke:#000000; stroke-width:1; stroke-opacity:1; stroke-dasharray:0 0" transform="translate(206 105)  rotate(0 38 35)" d="" /><path id="箭头 1"  style="fill:#000000" transform="translate(52 96)  rotate(0 115.00000000000001 3.499999999999999)" opacity="1" d="M230.5 -0.00331422Q230.499 -0.102769 230.461 -0.194401Q230.422 -0.286033 230.351 -0.355892L226.792 -3.86788Q226.757 -3.90247 226.716 -3.92956Q226.675 -3.95665 226.629 -3.97519Q226.584 -3.99373 226.535 -4.00302Q226.487 -4.01231 226.438 -4.01198Q226.388 -4.01165 226.34 -4.00172Q226.292 -3.9918 226.247 -3.97265Q226.201 -3.9535 226.161 -3.92587Q226.12 -3.89824 226.085 -3.86319Q226.015 -3.7924 225.978 -3.70026Q225.94 -3.60813 225.941 -3.50867L225.961 -0.471593Q220.885 -0.434227 213.97 -0.376263Q194.202 -0.210568 175.335 0.000413805Q114.981 0.675346 86.2348 1.55023Q57.4758 2.42551 25.8415 4.55112Q15.9559 5.21537 6.96846 5.92499Q2.47415 6.27984 -0.0439288 6.50193L0.0439288 7.49807Q2.55739 7.27638 7.04717 6.92189Q16.0288 6.21272 25.9085 5.54887Q57.5245 3.42447 86.2652 2.54977Q115.002 1.67517 175.346 1.00035Q194.211 0.789387 213.978 0.623702Q220.893 0.565746 225.968 0.528386L225.988 3.56224Q225.989 3.66169 226.027 3.75332Q226.066 3.84495 226.137 3.91481Q226.208 3.98467 226.3 4.02212Q226.392 4.05957 226.491 4.05891Q226.591 4.05825 226.682 4.01958Q226.774 3.98091 226.844 3.91012L230.356 0.351199Q230.426 0.280409 230.463 0.188274Q230.501 0.0961387 230.5 -0.00331422Z " /><path  id="箭头 1" style="stroke:#000000; stroke-width:1; stroke-opacity:1; stroke-dasharray:0 0" transform="translate(52 96)  rotate(0 115.00000000000001 3.499999999999999)" d="" /><path id="箭头 1"  style="fill:#000000" transform="translate(359 87.86666666666667)  rotate(0 60.50000000000001 13.066666666666668)" opacity="1" d="M0.890922 1.44186Q0.24031 1.56511 -0.107516 1.6417L0.107516 2.6183Q0.440934 2.54489 1.07705 2.42439Q2.35551 2.1822 3.86088 1.94911Q8.68413 1.20229 13.9603 0.828752Q21.348 0.305731 28.5825 0.604574Q37.622 0.977977 45.9027 2.62045Q54.1932 4.26485 67.7702 8.37961Q78.6425 11.6746 92.3878 16.3944Q102.21 19.767 112.489 23.5159Q114.998 24.4311 117.043 25.1871L115.975 28.0138Q115.958 28.0599 115.95 28.1084Q115.942 28.157 115.943 28.2062Q115.945 28.2555 115.956 28.3034Q115.967 28.3514 115.987 28.3963Q116.007 28.4412 116.036 28.4812Q116.065 28.5213 116.101 28.555Q116.136 28.5887 116.178 28.6148Q116.22 28.6409 116.266 28.6583Q116.359 28.6934 116.458 28.6903Q116.558 28.6872 116.649 28.6463L121.206 26.589Q121.251 26.5688 121.291 26.5402Q121.331 26.5115 121.364 26.4756Q121.398 26.4397 121.424 26.3979Q121.45 26.3562 121.468 26.3101Q121.485 26.264 121.493 26.2155Q121.501 26.1669 121.5 26.1177Q121.498 26.0684 121.487 26.0205Q121.476 25.9725 121.456 25.9276L119.398 21.3704Q119.378 21.3256 119.35 21.2855Q119.321 21.2454 119.285 21.2117Q119.249 21.178 119.207 21.1519Q119.166 21.1259 119.12 21.1085Q119.073 21.091 119.025 21.083Q118.976 21.0749 118.927 21.0764Q118.878 21.0779 118.83 21.0891Q118.782 21.1002 118.737 21.1204Q118.646 21.1614 118.578 21.2339Q118.51 21.3064 118.475 21.3994L117.397 24.2516Q115.347 23.4937 112.831 22.5764Q102.543 18.8242 92.7126 15.4486Q78.9504 10.723 68.0603 7.42259Q54.4362 3.29357 46.0973 1.63955Q37.7406 -0.0179758 28.6238 -0.394574Q21.3333 -0.69573 13.8897 -0.168752Q8.57212 0.207713 3.70787 0.960888Q2.18589 1.19655 0.890922 1.44186Z " /><path  id="箭头 1" style="stroke:#000000; stroke-width:1; stroke-opacity:1; stroke-dasharray:0 0" transform="translate(359 87.86666666666667)  rotate(0 60.50000000000001 13.066666666666668)" d="" /><path id="箭头 1"  style="fill:#000000" transform="translate(558 113)  rotate(0 55.99999999999999 6.999999999999995)" opacity="1" d="M3.20852 0.280877Q1.10439 0.482654 -0.0684358 0.644706L0.0684358 1.63529Q1.22061 1.4761 3.30398 1.27631Q7.47841 0.876002 12.1215 0.675786Q18.6234 0.395421 25.1314 0.55563Q33.2653 0.755858 40.943 1.63674Q54.9177 3.24009 84.7809 9.01998Q94.1212 10.8278 103.932 12.837Q106.123 13.2858 107.946 13.6633L107.32 16.6233Q107.31 16.6715 107.309 16.7208Q107.308 16.77 107.317 16.8184Q107.326 16.8668 107.345 16.9126Q107.363 16.9583 107.39 16.9996Q107.417 17.0408 107.451 17.0761Q107.486 17.1113 107.526 17.1392Q107.567 17.167 107.612 17.1864Q107.657 17.2058 107.706 17.216Q107.803 17.2366 107.901 17.2184Q107.998 17.2002 108.082 17.146L112.273 14.4191Q112.314 14.3922 112.349 14.3578Q112.384 14.3235 112.412 14.2828Q112.44 14.2422 112.46 14.197Q112.479 14.1517 112.489 14.1035Q112.499 14.0553 112.5 14.0061Q112.501 13.9569 112.492 13.9085Q112.483 13.86 112.464 13.8143Q112.446 13.7686 112.419 13.7273L109.692 9.53635Q109.665 9.49507 109.631 9.45983Q109.597 9.42458 109.556 9.39672Q109.515 9.36887 109.47 9.34947Q109.425 9.33007 109.377 9.31987Q109.328 9.30968 109.279 9.30907Q109.23 9.30847 109.182 9.31749Q109.133 9.3265 109.087 9.34479Q109.042 9.36308 109 9.38994Q108.917 9.44418 108.861 9.52619Q108.805 9.60821 108.784 9.70551L108.153 12.685Q106.328 12.3068 104.133 11.8573Q94.3167 9.84703 84.9709 8.0382Q55.0699 2.25099 41.057 0.643259Q33.3347 -0.242735 25.1561 -0.444067Q18.6141 -0.605109 12.0785 -0.323286Q7.40909 -0.121938 3.20852 0.280877Z " /><path  id="箭头 1" style="stroke:#000000; stroke-width:1; stroke-opacity:1; stroke-dasharray:0 0" transform="translate(558 113)  rotate(0 55.99999999999999 6.999999999999995)" d="" /><path id="箭头 1"  style="fill:#000000" transform="translate(52 115)  rotate(0 38 34.99999999999999)" opacity="1" d="M0.283039 -0.412176Q1.74246 0.589998 4.1675 2.311Q9.01573 5.75168 13.8485 9.34891Q20.615 14.3854 26.3848 19.0163Q33.6013 24.8083 38.8387 29.6322Q48.3472 38.39 63.297 54.8883Q67.9691 60.0444 72.6321 65.3641Q73.2122 66.0258 73.7358 66.6254L76.0564 64.6351Q76.1319 64.5703 76.2264 64.5394Q76.321 64.5085 76.4201 64.5161Q76.4692 64.5198 76.5166 64.5331Q76.5641 64.5463 76.608 64.5686Q76.6519 64.5909 76.6906 64.6213Q76.7294 64.6517 76.7614 64.6891Q76.7935 64.7265 76.8176 64.7694Q76.8418 64.8123 76.8571 64.8591Q76.8724 64.9059 76.8783 64.9548Q76.8842 65.0037 76.8805 65.0528L76.4985 70.0382Q76.4948 70.0873 76.4815 70.1347Q76.4682 70.1821 76.446 70.2261Q76.4237 70.27 76.3933 70.3087Q76.3629 70.3475 76.3255 70.3795Q76.2881 70.4116 76.2452 70.4357Q76.2023 70.4599 76.1555 70.4752Q76.1087 70.4905 76.0598 70.4964Q76.0109 70.5023 75.9618 70.4985L70.9764 70.1166Q70.8773 70.109 70.7885 70.0641Q70.6998 70.0191 70.6351 69.9436Q70.603 69.9062 70.5788 69.8633Q70.5547 69.8204 70.5394 69.7736Q70.5241 69.7268 70.5182 69.6779Q70.5123 69.629 70.5161 69.5799Q70.5198 69.5308 70.5331 69.4834Q70.5464 69.436 70.5686 69.392Q70.5909 69.3481 70.6213 69.3094Q70.6517 69.2706 70.6891 69.2386L72.9768 67.2765Q72.4559 66.6801 71.8801 66.0232Q67.2227 60.7098 62.5559 55.5598Q47.6364 39.0949 38.1613 30.3678Q32.9488 25.5668 25.7589 19.7962Q20.0033 15.1767 13.2515 10.1511Q8.42774 6.56063 3.58875 3.1265Q1.17001 1.40998 -0.283039 0.412176L0.283039 -0.412176Z " /><path  id="箭头 1" style="stroke:#000000; stroke-width:1; stroke-opacity:1; stroke-dasharray:0 0" transform="translate(52 115)  rotate(0 38 34.99999999999999)" d="" /><path id="箭头 1"  style="fill:#000000" transform="translate(52 123)  rotate(0 120.25 81.50000000000001)" opacity="1" d="M0.466206 -0.1807Q0.853913 0.819584 1.6281 2.64028Q3.17903 6.28769 5.10851 10.3805Q7.81052 16.1121 10.8833 21.9144Q14.7243 29.1677 18.9278 36.1162Q29.6257 53.8003 41.7246 68.0197Q56.8374 85.7815 73.2833 97.088Q89.7417 108.403 119.619 121.197Q143.535 131.438 174.912 142.152Q197.326 149.806 221.221 156.927Q228.696 159.155 235.408 161.058Q236.107 161.256 236.743 161.436L237.534 158.529Q237.56 158.433 237.621 158.355Q237.682 158.276 237.768 158.227Q237.811 158.202 237.857 158.186Q237.904 158.171 237.953 158.165Q238.002 158.158 238.051 158.162Q238.1 158.165 238.147 158.178Q238.195 158.191 238.239 158.213Q238.283 158.235 238.322 158.265Q238.361 158.295 238.393 158.332Q238.426 158.369 238.45 158.412L240.934 162.752Q240.958 162.794 240.974 162.841Q240.99 162.888 240.996 162.937Q241.002 162.985 240.999 163.035Q240.995 163.084 240.982 163.131Q240.97 163.179 240.948 163.223Q240.926 163.267 240.896 163.306Q240.865 163.345 240.828 163.377Q240.791 163.409 240.748 163.434L236.409 165.918Q236.323 165.967 236.224 165.98Q236.125 165.992 236.029 165.966Q235.933 165.94 235.855 165.879Q235.776 165.818 235.727 165.732Q235.677 165.646 235.665 165.547Q235.652 165.449 235.678 165.353L236.481 162.401Q235.844 162.221 235.135 162.02Q228.416 160.115 220.935 157.885Q197.021 150.758 174.588 143.098Q143.176 132.372 119.225 122.116Q89.2568 109.283 72.7167 97.912Q56.1616 86.5303 40.9629 68.6678Q28.8118 54.387 18.0722 36.6338Q13.854 29.6609 9.99954 22.3824Q6.91592 16.5595 4.20399 10.807Q2.26629 6.69668 0.707839 3.03159Q-0.0726613 1.19604 -0.466206 0.1807L0.466206 -0.1807Z " /><path  id="箭头 1" style="stroke:#000000; stroke-width:1; stroke-opacity:1; stroke-dasharray:0 0" transform="translate(52 123)  rotate(0 120.25 81.50000000000001)" d="" /><path id="箭头 1"  style="fill:#000000" transform="translate(206 195)  rotate(0 44.000000000000014 42.00000000000001)" opacity="1" d="M0.446735 -0.224562Q1.02806 0.931898 2.17746 2.93558Q4.48119 6.95154 7.31508 11.1712Q11.2834 17.0802 15.7437 22.5496Q21.3178 29.3849 27.3452 35.1383Q33.3763 40.8952 44.2537 49.763Q52.9675 56.8671 64.3677 65.6251Q72.5165 71.8855 81.2055 78.3559Q83.3129 79.9252 85.044 81.2051L86.8266 78.7647Q86.8852 78.6844 86.9701 78.6326Q87.0551 78.5809 87.1534 78.5656Q87.202 78.558 87.2512 78.56Q87.3004 78.5621 87.3483 78.5737Q87.3961 78.5853 87.4408 78.606Q87.4855 78.6268 87.5252 78.6558Q87.565 78.6849 87.5983 78.7211Q87.6317 78.7574 87.6573 78.7994Q87.6829 78.8415 87.6998 78.8877Q87.7168 78.934 87.7244 78.9826L88.494 83.923Q88.5016 83.9717 88.4995 84.0209Q88.4975 84.0701 88.4859 84.1179Q88.4743 84.1658 88.4535 84.2105Q88.4328 84.2551 88.4038 84.2949Q88.3747 84.3347 88.3385 84.368Q88.3022 84.4013 88.2602 84.427Q88.2181 84.4526 88.1719 84.4695Q88.1256 84.4865 88.077 84.494L83.1366 85.2637Q83.0383 85.279 82.9416 85.2556Q82.845 85.2321 82.7647 85.1734Q82.7249 85.1444 82.6916 85.1081Q82.6582 85.0719 82.6326 85.0298Q82.607 84.9878 82.59 84.9415Q82.5731 84.8953 82.5655 84.8466Q82.558 84.798 82.56 84.7488Q82.5621 84.6996 82.5737 84.6517Q82.5853 84.6039 82.606 84.5592Q82.6268 84.5145 82.6558 84.4748L84.4542 82.0127Q82.7205 80.7309 80.6082 79.1579Q71.9106 72.681 63.7584 66.4181Q52.3452 57.6498 43.6218 50.5381Q32.7141 41.6456 26.6548 35.8617Q20.5822 30.0651 14.9688 23.1816Q10.4791 17.6761 6.48492 11.7288Q3.63134 7.47975 1.31004 3.43317Q0.146944 1.4056 -0.446735 0.224562L0.446735 -0.224562Z " /><path  id="箭头 1" style="stroke:#000000; stroke-width:1; stroke-opacity:1; stroke-dasharray:0 0" transform="translate(206 195)  rotate(0 44.000000000000014 42.00000000000001)" d="" /><path id="箭头 1"  style="fill:#000000" transform="translate(370 281)  rotate(0 35.50000000000005 0.005)" opacity="1" d="M71.5 0.0100194Q71.5 -0.0894378 71.462 -0.181326Q71.4239 -0.273213 71.3536 -0.343542L67.8181 -3.87919Q67.7833 -3.91401 67.7424 -3.94137Q67.7014 -3.96873 67.6559 -3.98758Q67.6104 -4.00642 67.5621 -4.01603Q67.5138 -4.02564 67.4646 -4.02564Q67.4153 -4.02564 67.367 -4.01604Q67.3187 -4.00643 67.2732 -3.98759Q67.2277 -3.96874 67.1868 -3.94139Q67.1458 -3.91403 67.111 -3.87921Q67.0407 -3.80888 67.0026 -3.717Q66.9646 -3.62511 66.9646 -3.52566L66.9645 -0.49L45.2011 -0.49L26.6302 -0.49L0.000187758 -0.5L-0.000187758 0.5L26.6298 0.51L66.9644 0.51L66.9644 3.54541Q66.9643 3.59466 66.974 3.64296Q66.9836 3.69125 67.0024 3.73675Q67.0212 3.78225 67.0486 3.8232Q67.076 3.86414 67.1108 3.89897Q67.1456 3.93379 67.1865 3.96115Q67.2275 3.98851 67.273 4.00736Q67.3185 4.02621 67.3668 4.03581Q67.4151 4.04542 67.4643 4.04543Q67.5638 4.04543 67.6557 4.00737Q67.7476 3.96931 67.8179 3.89899L71.3535 0.363564Q71.4239 0.293241 71.4619 0.201358Q71.5 0.109475 71.5 0.0100194Z " /><path  id="箭头 1" style="stroke:#000000; stroke-width:1; stroke-opacity:1; stroke-dasharray:0 0" transform="translate(370 281)  rotate(0 35.50000000000005 0.005)" d="" /><path id="箭头 1"  style="fill:#000000" transform="translate(519 137.21057253288473)  rotate(0 75.75 71.89471373355762)" opacity="1" d="M152 0.289428Q152 0.189972 151.962 0.0980861Q151.924 0.00620047 151.854 -0.0641257L148.318 -3.59966Q148.248 -3.66999 148.156 -3.70805Q148.064 -3.74611 147.964 -3.74611Q147.865 -3.74611 147.773 -3.70805Q147.681 -3.66999 147.611 -3.59966Q147.541 -3.52933 147.503 -3.43745Q147.464 -3.34556 147.464 -3.24611L147.464 -0.389473Q145.722 -0.472932 144.529 -0.491668Q141.674 -0.536481 139.031 -0.337304Q131.914 0.199066 125.236 2.57356Q116.716 5.60266 108.818 11.6263Q99.4744 18.7525 91.0991 29.9913Q87.4176 34.9319 83.8974 40.88Q80.7943 46.1235 77.6747 52.3963Q75.101 57.5712 72.2101 64.0792Q70.49 67.9515 67.285 75.4678Q64.4038 82.2249 63.0019 85.3831Q60.69 90.5913 58.826 94.2715Q56.6176 98.6318 54.5909 101.757Q52.3525 105.208 50.1431 107.46Q39.7848 118.017 29.5605 126.024Q21.3871 132.424 13.6736 136.91Q8.17303 140.11 3.45496 142.034Q1.98657 142.632 0.774796 143.032Q0.176718 143.229 -0.124073 143.306L0.124073 144.274Q0.457394 144.189 1.0877 143.981Q2.33225 143.571 3.83254 142.96Q8.6154 141.009 14.1764 137.775Q21.9494 133.254 30.177 126.811Q40.4528 118.764 50.8569 108.16Q53.1367 105.836 55.4299 102.301Q57.4856 99.1312 59.7181 94.7233Q61.5936 91.0204 63.9159 85.7888Q65.3207 82.624 68.2049 75.86Q71.4062 68.3521 73.124 64.4851Q76.0057 57.9976 78.57 52.8416Q81.6735 46.6013 84.758 41.3893Q88.2511 35.4869 91.9009 30.5887Q100.192 19.4625 109.424 12.4214Q117.198 6.49255 125.571 3.51578Q132.123 1.18617 139.106 0.659868Q141.704 0.46411 144.513 0.508209Q145.707 0.526957 147.464 0.611676L147.464 3.82496Q147.464 3.87421 147.474 3.92251Q147.484 3.97081 147.503 4.0163Q147.521 4.0618 147.549 4.10275Q147.576 4.14369 147.611 4.17851Q147.646 4.21334 147.687 4.2407Q147.728 4.26806 147.773 4.2869Q147.819 4.30575 147.867 4.31535Q147.915 4.32496 147.964 4.32496Q148.064 4.32496 148.156 4.2869Q148.248 4.24884 148.318 4.17851L151.854 0.642981Q151.924 0.572655 151.962 0.480769Q152 0.388884 152 0.289428Z " /><path  id="箭头 1" style="stroke:#000000; stroke-width:1; stroke-opacity:1; stroke-dasharray:0 0" transform="translate(519 137.21057253288473)  rotate(0 75.75 71.89471373355762)" d="" /><path id="箭头 1"  style="fill:#000000" transform="translate(427 120)  rotate(0 63.00000000000003 75)" opacity="1" d="M52.8215 0.452694Q52.8581 0.419656 52.8874 0.380128Q52.9168 0.3406 52.9379 0.296101Q52.959 0.251603 52.971 0.203844Q52.983 0.156085 52.9855 0.106901Q52.9879 0.0577164 52.9807 0.00899715Q52.9736 -0.0397221 52.957 -0.086104Q52.9405 -0.132486 52.9152 -0.174748Q52.8899 -0.217011 52.8569 -0.253529L49.5024 -3.96132Q49.4694 -3.99784 49.4299 -4.02721Q49.3903 -4.05658 49.3458 -4.07768Q49.3013 -4.09877 49.2536 -4.11078Q49.2058 -4.12279 49.1566 -4.12525Q49.1074 -4.12771 49.0587 -4.12053Q49.01 -4.11335 48.9636 -4.0968Q48.9172 -4.08025 48.875 -4.05497Q48.8327 -4.02969 48.7962 -3.99665Q48.7225 -3.92993 48.6799 -3.84006Q48.6372 -3.75019 48.6323 -3.65086L48.4747 -0.501813Q45.9372 -0.508508 43.2878 -0.416732Q38.4908 -0.250558 34.0023 0.221354Q28.3867 0.811768 23.5758 1.85Q17.877 3.07982 13.4806 4.9028Q8.42775 6.99797 5.18457 9.84171Q1.52434 13.0511 0.217927 17.1678Q-1.21631 21.6872 0.215974 27.2154Q0.544768 28.4832 1.85609 29.9902Q3.06958 31.3848 5.16575 33.0362Q8.96643 36.0305 16.013 40.1113Q21.9259 43.5356 31.1933 48.3275Q36.7933 51.2231 49.0866 57.3923Q56.2018 60.963 59.7893 62.7787Q65.8032 65.8226 70.5392 68.2814Q82.4956 74.489 90.9902 79.4082Q101.269 85.3605 108.052 90.3109Q115.707 95.8976 119.317 100.489Q127.412 110.787 124.912 120.718Q123.847 124.946 120.868 129.062Q118.246 132.684 114.191 136.155Q110.749 139.102 106.369 141.861Q102.859 144.072 98.9129 146.061Q96.0926 147.483 93.3382 148.651Q91.9639 149.233 91.1571 149.531L91.5029 150.469Q92.332 150.164 93.7286 149.571Q96.5134 148.391 99.3631 146.954Q103.352 144.943 106.902 142.707Q111.344 139.909 114.841 136.915Q118.987 133.366 121.678 129.649Q124.77 125.377 125.881 120.962Q127.128 116.01 125.863 110.962Q124.48 105.439 120.103 99.871Q116.408 95.1711 108.642 89.5031Q101.816 84.5216 91.4914 78.5429Q82.9767 73.6121 71 67.3939Q66.2595 64.9327 60.2409 61.8865Q56.6522 60.0701 49.5351 56.4986Q37.2464 50.3316 31.6526 47.4392Q22.406 42.6581 16.5142 39.246Q9.5293 35.2008 5.7846 32.2507Q1.72561 29.0529 1.18401 26.9646Q-1.40966 16.9538 5.84386 10.5936Q8.96307 7.85856 13.8636 5.82654Q18.1765 4.03823 23.7867 2.8275Q28.545 1.80064 34.1069 1.21587Q38.5605 0.747628 43.3225 0.582669Q45.9285 0.492395 48.4247 0.498067L48.2789 3.41137Q48.274 3.51071 48.3074 3.60438Q48.3408 3.69805 48.4075 3.7718Q48.4743 3.84556 48.5641 3.88816Q48.654 3.93076 48.7533 3.93573Q48.8527 3.9407 48.9463 3.90728Q49.04 3.87386 49.1138 3.80714L52.8215 0.452694Z " /><path  id="箭头 1" style="stroke:#000000; stroke-width:1; stroke-opacity:1; stroke-dasharray:0 0" transform="translate(427 120)  rotate(0 63.00000000000003 75)" d="" /><g opacity="1" transform="translate(140 0)  rotate(0 39 33)"><rect  id="矩形 1" style="stroke:#000000; stroke-width:1; stroke-opacity:1; stroke-dasharray:0 0" transform="translate(52 0)  rotate(0 13 33)" x="0.5" y="0.5" rx="0"  width="25" height="65" /><rect  id="矩形 1" style="stroke:#000000; stroke-width:1; stroke-opacity:1; stroke-dasharray:0 0" transform="translate(0 0)  rotate(0 13 33)" x="0.5" y="0.5" rx="0"  width="25" height="65" /><rect  id="矩形 1" style="stroke:#000000; stroke-width:1; stroke-opacity:1; stroke-dasharray:0 0" transform="translate(26 0)  rotate(0 13 33)" x="0.5" y="0.5" rx="0"  width="25" height="65" /><g opacity="1" transform="translate(52 0)  rotate(0 13 33)"><text><tspan x="9.79" y="29.543999999999997" font-size="12" line-height="0" fill="#000000" opacity="1" font-family="SourceHanSansCN-Regular" letter-spacing="0"  >J</tspan><tspan x="9.466000000000001" y="46.92" font-size="12" line-height="0" fill="#000000" opacity="1" font-family="SourceHanSansCN-Regular" letter-spacing="0" >E</tspan></text></g><g opacity="1" transform="translate(0 0)  rotate(0 13 33)"><text><tspan x="9.352" y="29.543999999999997" font-size="12" line-height="0" fill="#000000" opacity="1" font-family="SourceHanSansCN-Regular" letter-spacing="0"  >A</tspan><tspan x="9.172" y="46.92" font-size="12" line-height="0" fill="#000000" opacity="1" font-family="SourceHanSansCN-Regular" letter-spacing="0" >C</tspan></text></g><g opacity="1" transform="translate(26 0)  rotate(0 13 33)"><text><tspan x="4.402000000000001" y="38.232" font-size="12" line-height="0" fill="#000000" opacity="1" font-family="SourceHanSansCN-Regular" letter-spacing="0" >W1</tspan></text></g></g><g opacity="1" transform="translate(128 146)  rotate(0 39 33)"><rect  id="矩形 1" style="stroke:#000000; stroke-width:1; stroke-opacity:1; stroke-dasharray:0 0" transform="translate(52 0)  rotate(0 13 33)" x="0.5" y="0.5" rx="0"  width="25" height="65" /><rect  id="矩形 1" style="stroke:#000000; stroke-width:1; stroke-opacity:1; stroke-dasharray:0 0" transform="translate(0 0)  rotate(0 13 33)" x="0.5" y="0.5" rx="0"  width="25" height="65" /><rect  id="矩形 1" style="stroke:#000000; stroke-width:1; stroke-opacity:1; stroke-dasharray:0 0" transform="translate(26 0)  rotate(0 13 33)" x="0.5" y="0.5" rx="0"  width="25" height="65" /><g opacity="1" transform="translate(52 0)  rotate(0 13 33)"><text><tspan x="9.466000000000001" y="29.543999999999997" font-size="12" line-height="0" fill="#000000" opacity="1" font-family="SourceHanSansCN-Regular" letter-spacing="0"  >E</tspan><tspan x="9.688" y="46.92" font-size="12" line-height="0" fill="#000000" opacity="1" font-family="SourceHanSansCN-Regular" letter-spacing="0" >F</tspan></text></g><g opacity="1" transform="translate(0 0)  rotate(0 13 33)"><text><tspan x="9.058" y="29.543999999999997" font-size="12" line-height="0" fill="#000000" opacity="1" font-family="SourceHanSansCN-Regular" letter-spacing="0"  >B</tspan><tspan x="9.172" y="46.92" font-size="12" line-height="0" fill="#000000" opacity="1" font-family="SourceHanSansCN-Regular" letter-spacing="0" >C</tspan></text></g><g opacity="1" transform="translate(26 0)  rotate(0 13 33)"><text><tspan x="4.402000000000001" y="38.232" font-size="12" line-height="0" fill="#000000" opacity="1" font-family="SourceHanSansCN-Regular" letter-spacing="0" >W2</tspan></text></g></g><g opacity="1" transform="translate(281 74)  rotate(0 39 33)"><rect  id="矩形 1" style="stroke:#000000; stroke-width:1; stroke-opacity:1; stroke-dasharray:0 0" transform="translate(52 0)  rotate(0 13 33)" x="0.5" y="0.5" rx="0"  width="25" height="65" /><rect  id="矩形 1" style="stroke:#000000; stroke-width:1; stroke-opacity:1; stroke-dasharray:0 0" transform="translate(0 0)  rotate(0 13 33)" x="0.5" y="0.5" rx="0"  width="25" height="65" /><rect  id="矩形 1" style="stroke:#000000; stroke-width:1; stroke-opacity:1; stroke-dasharray:0 0" transform="translate(26 0)  rotate(0 13 33)" x="0.5" y="0.5" rx="0"  width="25" height="65" /><g opacity="1" transform="translate(52 0)  rotate(0 13 33)"><text><tspan x="8.632" y="38.232" font-size="12" line-height="0" fill="#000000" opacity="1" font-family="SourceHanSansCN-Regular" letter-spacing="0" >H</tspan></text></g><g opacity="1" transform="translate(0 0)  rotate(0 13 33)"><text><tspan x="9.172" y="29.543999999999997" font-size="12" line-height="0" fill="#000000" opacity="1" font-family="SourceHanSansCN-Regular" letter-spacing="0"  >C</tspan><tspan x="9.466000000000001" y="46.92" font-size="12" line-height="0" fill="#000000" opacity="1" font-family="SourceHanSansCN-Regular" letter-spacing="0" >E</tspan></text></g><g opacity="1" transform="translate(26 0)  rotate(0 13 33)"><text><tspan x="4.402000000000001" y="38.232" font-size="12" line-height="0" fill="#000000" opacity="1" font-family="SourceHanSansCN-Regular" letter-spacing="0" >W3</tspan></text></g></g><g opacity="1" transform="translate(292 246)  rotate(0 39 33)"><rect  id="矩形 1" style="stroke:#000000; stroke-width:1; stroke-opacity:1; stroke-dasharray:0 0" transform="translate(52 0)  rotate(0 13 33)" x="0.5" y="0.5" rx="0"  width="25" height="65" /><rect  id="矩形 1" style="stroke:#000000; stroke-width:1; stroke-opacity:1; stroke-dasharray:0 0" transform="translate(0 0)  rotate(0 13 33)" x="0.5" y="0.5" rx="0"  width="25" height="65" /><rect  id="矩形 1" style="stroke:#000000; stroke-width:1; stroke-opacity:1; stroke-dasharray:0 0" transform="translate(26 0)  rotate(0 13 33)" x="0.5" y="0.5" rx="0"  width="25" height="65" /><g opacity="1" transform="translate(52 0)  rotate(0 13 33)"><text><tspan x="8.866" y="38.232" font-size="12" line-height="0" fill="#000000" opacity="1" font-family="SourceHanSansCN-Regular" letter-spacing="0" >G</tspan></text></g><g opacity="1" transform="translate(0 0)  rotate(0 13 33)"><text><tspan x="9.172" y="29.543999999999997" font-size="12" line-height="0" fill="#000000" opacity="1" font-family="SourceHanSansCN-Regular" letter-spacing="0"  >C</tspan><tspan x="9.688" y="46.92" font-size="12" line-height="0" fill="#000000" opacity="1" font-family="SourceHanSansCN-Regular" letter-spacing="0" >F</tspan></text></g><g opacity="1" transform="translate(26 0)  rotate(0 13 33)"><text><tspan x="4.402000000000001" y="38.232" font-size="12" line-height="0" fill="#000000" opacity="1" font-family="SourceHanSansCN-Regular" letter-spacing="0" >W4</tspan></text></g></g><g opacity="1" transform="translate(441 246)  rotate(0 39 33)"><rect  id="矩形 1" style="stroke:#000000; stroke-width:1; stroke-opacity:1; stroke-dasharray:0 0" transform="translate(52 0)  rotate(0 13 33)" x="0.5" y="0.5" rx="0"  width="25" height="65" /><rect  id="矩形 1" style="stroke:#000000; stroke-width:1; stroke-opacity:1; stroke-dasharray:0 0" transform="translate(0 0)  rotate(0 13 33)" x="0.5" y="0.5" rx="0"  width="25" height="65" /><rect  id="矩形 1" style="stroke:#000000; stroke-width:1; stroke-opacity:1; stroke-dasharray:0 0" transform="translate(26 0)  rotate(0 13 33)" x="0.5" y="0.5" rx="0"  width="25" height="65" /><g opacity="1" transform="translate(52 0)  rotate(0 13 33)"><text><tspan x="8.632" y="29.543999999999997" font-size="12" line-height="0" fill="#000000" opacity="1" font-family="SourceHanSansCN-Regular" letter-spacing="0"  >H</tspan><tspan x="9.124" y="46.92" font-size="12" line-height="0" fill="#000000" opacity="1" font-family="SourceHanSansCN-Regular" letter-spacing="0" >K</tspan></text></g><g opacity="1" transform="translate(0 0)  rotate(0 13 33)"><text><tspan x="8.866" y="38.232" font-size="12" line-height="0" fill="#000000" opacity="1" font-family="SourceHanSansCN-Regular" letter-spacing="0" >G</tspan></text></g><g opacity="1" transform="translate(26 0)  rotate(0 13 33)"><text><tspan x="4.402000000000001" y="38.232" font-size="12" line-height="0" fill="#000000" opacity="1" font-family="SourceHanSansCN-Regular" letter-spacing="0" >W5</tspan></text></g></g><g opacity="1" transform="translate(480 81)  rotate(0 39 33)"><rect  id="矩形 1" style="stroke:#000000; stroke-width:1; stroke-opacity:1; stroke-dasharray:0 0" transform="translate(52 0)  rotate(0 13 33)" x="0.5" y="0.5" rx="0"  width="25" height="65" /><rect  id="矩形 1" style="stroke:#000000; stroke-width:1; stroke-opacity:1; stroke-dasharray:0 0" transform="translate(0 0)  rotate(0 13 33)" x="0.5" y="0.5" rx="0"  width="25" height="65" /><rect  id="矩形 1" style="stroke:#000000; stroke-width:1; stroke-opacity:1; stroke-dasharray:0 0" transform="translate(26 0)  rotate(0 13 33)" x="0.5" y="0.5" rx="0"  width="25" height="65" /><g opacity="1" transform="translate(52 0)  rotate(0 13 33)"><text><tspan x="9.79" y="38.232" font-size="12" line-height="0" fill="#000000" opacity="1" font-family="SourceHanSansCN-Regular" letter-spacing="0" >J</tspan></text></g><g opacity="1" transform="translate(0 0)  rotate(0 13 33)"><text><tspan x="8.632" y="38.232" font-size="12" line-height="0" fill="#000000" opacity="1" font-family="SourceHanSansCN-Regular" letter-spacing="0" >H</tspan></text></g><g opacity="1" transform="translate(26 0)  rotate(0 13 33)"><text><tspan x="4.402000000000001" y="38.232" font-size="12" line-height="0" fill="#000000" opacity="1" font-family="SourceHanSansCN-Regular" letter-spacing="0" >W6</tspan></text></g></g><g opacity="1" transform="translate(79 147)  rotate(0 11 9)"><text><tspan x="0" y="13.92" font-size="12" line-height="0" fill="#000000" opacity="1" font-family="SourceHanSansCN-Regular" letter-spacing="0"  >B,</tspan><tspan x="11.22" y="13.92" font-size="12" line-height="0" fill="#000000" opacity="1" font-family="SourceHanSansCN-Regular" letter-spacing="0" > C</tspan></text></g><g opacity="1" transform="translate(65 39)  rotate(0 10.5 9)"><text><tspan x="0" y="13.92" font-size="12" line-height="0" fill="#000000" opacity="1" font-family="SourceHanSansCN-Regular" letter-spacing="0"  >A,</tspan><tspan x="10.632" y="13.92" font-size="12" line-height="0" fill="#000000" opacity="1" font-family="SourceHanSansCN-Regular" letter-spacing="0" > C</tspan></text></g><g opacity="1" transform="translate(152 76)  rotate(0 4 9)"><text><tspan x="0" y="13.92" font-size="12" line-height="0" fill="#000000" opacity="1" font-family="SourceHanSansCN-Regular" letter-spacing="0" >C</tspan></text></g><g opacity="1" transform="translate(415 72)  rotate(0 4.5 9)"><text><tspan x="0" y="13.92" font-size="12" line-height="0" fill="#000000" opacity="1" font-family="SourceHanSansCN-Regular" letter-spacing="0" >H</tspan></text></g><g opacity="1" transform="translate(595 96)  rotate(0 3.5 9)"><text><tspan x="0" y="13.92" font-size="12" line-height="0" fill="#000000" opacity="1" font-family="SourceHanSansCN-Regular" letter-spacing="0" >J</tspan></text></g><g opacity="1" transform="translate(218 115)  rotate(0 4 9)"><text><tspan x="0" y="13.92" font-size="12" line-height="0" fill="#000000" opacity="1" font-family="SourceHanSansCN-Regular" letter-spacing="0" >E</tspan></text></g><g opacity="1" transform="translate(237 212)  rotate(0 3.5 9)"><text><tspan x="0" y="13.92" font-size="12" line-height="0" fill="#000000" opacity="1" font-family="SourceHanSansCN-Regular" letter-spacing="0" >F</tspan></text></g><g opacity="1" transform="translate(163 223)  rotate(0 4 9)"><text><tspan x="0" y="13.92" font-size="12" line-height="0" fill="#000000" opacity="1" font-family="SourceHanSansCN-Regular" letter-spacing="0" >C</tspan></text></g><g opacity="1" transform="translate(397 261)  rotate(0 4.5 9)"><text><tspan x="0" y="13.92" font-size="12" line-height="0" fill="#000000" opacity="1" font-family="SourceHanSansCN-Regular" letter-spacing="0" >G</tspan></text></g><g opacity="1" transform="translate(479 199)  rotate(0 4.5 9)"><text><tspan x="0" y="13.92" font-size="12" line-height="0" fill="#000000" opacity="1" font-family="SourceHanSansCN-Regular" letter-spacing="0" >H</tspan></text></g><g opacity="1" transform="translate(579 184)  rotate(0 4 9)"><text><tspan x="0" y="13.92" font-size="12" line-height="0" fill="#000000" opacity="1" font-family="SourceHanSansCN-Regular" letter-spacing="0" >K</tspan></text></g><g opacity="1" transform="translate(412 15)  rotate(0 3.5 9)"><text><tspan x="0" y="13.92" font-size="12" line-height="0" fill="#000000" opacity="1" font-family="SourceHanSansCN-Regular" letter-spacing="0" >J</tspan></text></g><path id="箭头 2"  style="fill:#FF5733" transform="translate(218 2.29333067738105)  rotate(0 225.74999999999997 53.853334661309496)" opacity="1" d="M164.663 0.503404L166.675 0.507703L166.677 -0.492295L164.665 -0.496594L164.663 0.503404ZM160.655 0.514522L162.659 0.505715L162.655 -0.494275L160.651 -0.485469L160.655 0.514522ZM168.686 0.518676L170.704 0.53648L170.713 -0.463482L168.695 -0.481285L168.686 0.518676ZM156.663 0.551223L158.659 0.529714L158.648 -0.470228L156.652 -0.448719L156.663 0.551223ZM172.719 0.561108L174.706 0.592173L174.722 -0.407705L172.735 -0.43877L172.719 0.561108ZM152.688 0.612701L154.675 0.578896L154.658 -0.42096L152.671 -0.387155L152.688 0.612701ZM176.693 0.630011L178.685 0.674865L178.707 -0.324882L176.715 -0.369736L176.693 0.630011ZM148.732 0.69815L150.709 0.652452L150.686 -0.347281L148.709 -0.301583L148.732 0.69815ZM180.676 0.72666L182.672 0.785687L182.702 -0.213876L180.705 -0.272903L180.676 0.72666ZM144.692 0.809979L146.72 0.750766L146.691 -0.248809L144.662 -0.189595L144.692 0.809979ZM184.667 0.851817L186.668 0.925398L186.704 -0.0739266L184.704 -0.147507L184.667 0.851817ZM140.655 0.946045L142.672 0.875051L142.637 -0.12433L140.62 -0.0533357L140.655 0.946045ZM188.666 1.00625L190.669 1.09476L190.714 0.0957384L188.71 0.00722021L188.666 1.00625ZM136.643 1.105L138.647 1.02266L138.606 0.023506L136.602 0.105838L136.643 1.105ZM192.67 1.19071L194.676 1.29454L194.728 0.295878L192.722 0.192042L192.67 1.19071ZM132.658 1.28594L134.649 1.19272L134.602 0.193811L132.611 0.287038L132.658 1.28594ZM128.7 1.488L130.677 1.38433L130.624 0.385698L128.648 0.489377L128.7 1.488ZM196.679 1.40596L198.678 1.52494L198.738 0.526709L196.739 0.407728L196.679 1.40596ZM124.772 1.71029L126.734 1.59661L126.676 0.598282L124.714 0.711968L124.772 1.71029ZM200.668 1.6512L202.661 1.78569L202.729 0.787955L200.735 0.653471L200.668 1.6512ZM120.709 1.96266L122.745 1.83336L122.682 0.835369L120.646 0.964675L120.709 1.96266ZM204.651 1.92794L206.646 2.07864L206.721 1.08148L204.727 0.930785L204.651 1.92794ZM116.667 2.23612L118.685 2.09685L118.616 1.09922L116.598 1.2385L116.667 2.23612ZM208.636 2.23726L210.63 2.40455L210.713 1.40805L208.719 1.24076L208.636 2.23726ZM112.662 2.52874L114.661 2.38001L114.587 1.38277L112.588 1.5315L112.662 2.52874ZM212.619 2.5799L214.612 2.76415L214.704 1.76839L212.711 1.58414L212.619 2.5799ZM108.697 2.83951L110.676 2.68182L110.596 1.68498L108.618 1.84266L108.697 2.83951ZM216.6 2.9566L218.591 3.15819L218.692 2.16328L216.701 1.96169L216.6 2.9566ZM104.773 3.1674L106.731 3.00128L106.646 2.00486L104.688 2.17098L104.773 3.1674ZM100.83 3.51708L102.828 3.33735L102.739 2.34137L100.74 2.5211L100.83 3.51708ZM220.577 3.36812L222.567 3.58744L222.676 2.59346L220.687 2.37414L220.577 3.36812ZM96.7474 3.90019L98.7833 3.70646L98.6886 2.71096L96.6527 2.90469L96.7474 3.90019ZM224.554 3.81572L226.545 4.05365L226.664 3.06072L224.673 2.82279L224.554 3.81572ZM92.7183 4.29917L94.7273 4.09766L94.6275 3.10265L92.6185 3.30417L92.7183 4.29917ZM228.529 4.30022L230.516 4.55669L230.644 3.56492L228.657 3.30845L228.529 4.30022ZM88.7445 4.7128L90.7256 4.50411L90.6208 3.50961L88.6397 3.7183L88.7445 4.7128ZM232.496 4.82193L234.479 5.09732L234.616 4.10682L232.634 3.83144L232.496 4.82193ZM84.828 5.13985L86.7801 4.9246L86.6705 3.93062L84.7184 4.14587L84.828 5.13985ZM80.9712 5.57909L82.8932 5.3579L82.7789 4.36445L80.8569 4.58564L80.9712 5.57909ZM236.454 5.38159L238.432 5.67627L238.579 4.68719L236.602 4.39251L236.454 5.38159ZM76.8718 6.06617L78.9257 5.81955L78.8065 4.82668L76.7526 5.07331L76.8718 6.06617ZM240.402 5.97995L242.374 6.2943L242.531 5.30676L240.559 4.99242L240.402 5.97995ZM72.8239 6.5675L74.8394 6.31537L74.7153 5.32311L72.6998 5.57523L72.8239 6.5675ZM244.338 6.61777L246.304 6.95215L246.472 5.96631L244.506 5.63193L244.338 6.61777ZM68.8546 7.07865L70.8304 6.8218L70.7015 5.83014L68.7257 6.08699L68.8546 7.07865ZM248.271 7.29763L250.251 7.65622L250.429 6.67224L248.45 6.31365L248.271 7.29763ZM64.9668 7.59804L66.9015 7.33727L66.7679 6.34623L64.8332 6.60701L64.9668 7.59804ZM61.1492 8.12608L63.0554 7.86019L62.9173 6.86978L61.0111 7.13567L61.1492 8.12608ZM252.221 8.02436L254.192 8.40418L254.381 7.42224L252.41 7.04242L252.221 8.02436ZM57.0046 8.71959L59.0643 8.42201L58.9213 7.43229L56.8616 7.72986L57.0046 8.71959ZM256.154 8.79365L258.116 9.19509L258.317 8.21537L256.354 7.81393L256.154 8.79365ZM52.9726 9.31724L54.9755 9.01787L54.8277 8.02885L52.8248 8.32822L52.9726 9.31724ZM49.0571 9.91684L51.0012 9.61677L50.8487 8.62847L48.9045 8.92854L49.0571 9.91684ZM260.069 9.60628L262.023 10.0297L262.235 9.05242L260.281 8.62897L260.069 9.60628ZM45.2618 10.5162L47.1453 10.2165L46.9882 9.22894L45.1047 9.52862L45.2618 10.5162ZM263.966 10.463L265.91 10.9089L266.133 9.93418L264.19 9.48833L263.966 10.463ZM41.2213 11.1742L43.3253 10.829L43.1634 9.84217L41.0594 10.1874L41.2213 11.1742ZM267.842 11.3646L269.776 11.8333L270.011 10.8614L268.078 10.3928L267.842 11.3646ZM37.1458 11.8588L39.1628 11.5173L38.9959 10.5313L36.9789 10.8728L37.1458 11.8588ZM33.2489 12.5335L35.1759 12.1974L35.0041 11.2123L33.0771 11.5484L33.2489 12.5335ZM271.701 12.3128L273.655 12.8129L273.903 11.8441L271.949 11.344L271.701 12.3128ZM29.5366 13.1949L31.3705 12.8659L31.1939 11.8816L29.36 12.2106L29.5366 13.1949ZM275.597 13.3235L277.539 13.848L277.8 12.8826L275.858 12.3581L275.597 13.3235ZM25.363 13.9607L27.4691 13.5712L27.2873 12.5879L25.1812 12.9773L25.363 13.9607ZM21.3762 14.715L23.3334 14.3419L23.1461 13.3595L21.189 13.7327L21.3762 14.715ZM279.468 14.383L281.396 14.9322L281.67 13.9705L279.741 13.4212L279.468 14.383ZM-0.427057 18.4466Q-0.452669 18.4887 -0.469583 18.5349Q-0.486497 18.5812 -0.494063 18.6298Q-0.501629 18.6785 -0.499557 18.7277Q-0.497485 18.7769 -0.485853 18.8248Q-0.474222 18.8726 -0.453478 18.9173Q-0.432735 18.9619 -0.403676 19.0017Q-0.374618 19.0415 -0.338362 19.0748Q-0.302105 19.1081 -0.260044 19.1337L4.01052 21.7342Q4.05258 21.7598 4.09883 21.7767Q4.14508 21.7936 4.19374 21.8012Q4.2424 21.8087 4.29161 21.8067Q4.34081 21.8046 4.38866 21.793Q4.43651 21.7813 4.48118 21.7606Q4.52584 21.7398 4.5656 21.7108Q4.60536 21.6817 4.63868 21.6455Q4.67201 21.6092 4.69762 21.5672Q4.74935 21.4822 4.76463 21.3839Q4.77991 21.2857 4.75642 21.189L4.0011 18.0816L3.82768 17.3153L3.81551 17.3181L3.08629 14.318Q3.0628 14.2214 3.00411 14.1411Q2.94543 14.0608 2.86048 14.009Q2.77553 13.9573 2.67726 13.942Q2.57898 13.9268 2.48234 13.9503Q2.3857 13.9737 2.3054 14.0324Q2.22511 14.0911 2.17338 14.1761L-0.427057 18.4466ZM17.6957 15.432L19.4983 15.0783L19.3058 14.097L17.5032 14.4507L17.6957 15.432ZM283.312 15.4921L285.227 16.0665L285.514 15.1086L283.599 14.5342L283.312 15.4921ZM13.785 16.2169L15.7742 15.8146L15.5759 14.8345L13.5867 15.2368L13.785 16.2169ZM9.86204 17.0301L11.9217 16.5998L11.7172 15.6209L9.65753 16.0512L9.86204 17.0301ZM287.128 16.6515L289.028 17.2515L289.329 16.2979L287.429 15.6979L287.128 16.6515ZM5.94916 17.8703L7.99035 17.4281L7.77863 16.4508L5.73744 16.8929L5.94916 17.8703ZM290.914 17.8622L292.799 18.4882L293.114 17.5391L291.229 16.9132L290.914 17.8622ZM294.836 19.1824L296.623 19.8023L296.951 18.8575L295.164 18.2376L294.997 18.1802L294.671 19.1255L294.836 19.1824ZM298.567 20.4821L300.498 21.1635L300.831 20.2205L298.9 19.5391L298.567 20.4821ZM302.411 21.8445L304.312 22.527L304.65 21.5859L302.749 20.9034L302.411 21.8445ZM306.195 23.2091L308.066 23.8926L308.41 22.9533L306.539 22.2698L306.195 23.2091ZM309.92 24.5756L311.761 25.2599L312.11 24.3225L310.268 23.6382L309.92 24.5756ZM313.585 25.9435L315.397 26.6283L315.75 25.6929L313.939 25.0081L313.585 25.9435ZM317.227 27.326L319.162 28.0705L319.521 27.1371L317.586 26.3927L317.227 27.326ZM321.077 28.814L322.978 29.5587L323.343 28.6276L321.442 27.8829L321.077 28.814ZM324.86 30.3023L326.727 31.047L327.097 30.1182L325.23 29.3735L324.86 30.3023ZM328.574 31.7905L330.407 32.535L330.783 31.6085L328.95 30.864L328.574 31.7905ZM332.22 33.2781L334.02 34.0221L334.402 33.098L332.602 32.354L332.22 33.2781ZM335.8 34.7646L337.642 35.54L338.03 34.6183L336.188 33.8429L335.8 34.7646ZM339.545 36.3487L341.433 37.1582L341.827 36.2392L339.94 35.4297L339.545 36.3487ZM343.297 37.9657L345.145 38.7737L345.546 37.8575L343.698 37.0494L343.297 37.9657ZM346.971 39.5795L348.78 40.3858L349.187 39.4723L347.378 38.6661L346.971 39.5795ZM350.567 41.1896L352.338 41.9938L352.752 41.0832L350.981 40.2791L350.567 41.1896ZM354.087 42.7953L355.922 43.6443L356.342 42.7367L354.507 41.8878L354.087 42.7953ZM357.795 44.5195L359.648 45.3946L360.075 44.4903L358.222 43.6152L357.795 44.5195ZM361.476 46.2663L363.285 47.1377L363.719 46.2368L361.91 45.3654L361.476 46.2663ZM365.068 48.0055L366.832 48.8728L367.273 47.9754L365.509 47.108L365.068 48.0055ZM368.571 49.7363L370.292 50.5991L370.74 49.7052L369.02 48.8423L368.571 49.7363ZM372.093 51.5114L373.938 52.4561L374.394 51.566L372.549 50.6213L372.093 51.5114ZM375.753 53.3956L377.546 54.3337L378.009 53.4477L376.216 52.5095L375.753 53.3956ZM379.309 55.2664L381.05 56.1975L381.522 55.3157L379.78 54.3845L379.309 55.2664ZM382.762 57.1228L384.453 58.0463L384.932 57.1687L383.242 56.2452L382.762 57.1228ZM386.194 59.0079L388.009 60.0222L388.497 59.1492L386.682 58.1349L386.194 59.0079ZM389.79 61.0287L391.544 62.0322L392.041 61.1642L390.286 60.1607L389.79 61.0287ZM393.264 63.0276L394.959 64.0196L395.464 63.1566L393.77 62.1646L393.264 63.0276ZM396.619 65.003L398.268 65.9913L398.782 65.1335L397.133 64.1452L396.619 65.003ZM400.055 67.0755L401.811 68.1543L402.334 67.3023L400.579 66.2235L400.055 67.0755ZM403.525 69.2215L405.208 70.2831L405.742 69.4372L404.058 68.3757L403.525 69.2215ZM406.852 71.3324L408.464 72.3756L409.007 71.536L407.395 70.4928L406.852 71.3324ZM410.132 73.4689L411.868 74.6226L412.422 73.7898L410.686 72.6361L410.132 73.4689ZM413.555 75.7598L415.203 76.8874L415.768 76.062L414.119 74.9344L413.555 75.7598ZM416.804 77.9976L418.367 79.0976L418.942 78.2798L417.379 77.1798L416.804 77.9976ZM420.017 80.2758L421.699 81.4965L422.286 80.6871L420.604 79.4664L420.017 80.2758ZM423.322 82.6927L424.897 83.8731L425.496 83.0729L423.921 81.8925L423.322 82.6927ZM426.413 85.0278L428.003 86.2589L428.615 85.4682L427.025 84.2371L426.413 85.0278ZM429.635 87.5451L431.204 88.806L431.831 88.0264L430.261 86.7654L429.635 87.5451ZM432.7 90.0296L434.164 91.2501L434.804 90.482L433.34 89.2615L432.7 90.0296ZM435.775 92.6206L437.302 93.9495L437.959 93.195L436.431 91.8661L435.775 92.6206ZM438.732 95.2209L440.2 96.556L440.873 95.8163L439.405 94.4812L438.732 95.2209ZM441.722 97.9763Q442.436 98.6515 443.12 99.3162L443.816 98.599Q443.129 97.9306 442.409 97.2499L441.722 97.9763ZM444.523 100.7Q445.268 101.445 445.97 102.173L446.689 101.479Q445.982 100.746 445.23 99.9931L444.523 100.7ZM447.234 103.506Q447.989 104.317 448.673 105.088L449.421 104.424Q448.728 103.644 447.965 102.825L447.234 103.506ZM449.963 106.585Q450.741 107.517 451.096 108.004L451.904 107.416Q451.531 106.902 450.731 105.944L449.963 106.585Z " /><path  id="箭头 2" style="stroke:#FF5733; stroke-width:1; stroke-opacity:1; stroke-dasharray:2 2" transform="translate(218 2.29333067738105)  rotate(0 225.74999999999997 53.853334661309496)" d="" /><path id="箭头 2"  style="fill:#FF5733" transform="translate(370 290)  rotate(0 35.50000000000001 4.999999999999999)" opacity="1" d="M70.9008 0.684156Q71.1807 0.49738 71.3153 0.388079L70.6847 -0.388079Q70.5867 -0.308415 70.3458 -0.147712Q69.8428 0.187878 69.141 0.573772L69.6229 1.45002Q70.3622 1.04349 70.9008 0.684156ZM65.905 3.20652Q66.9168 2.78626 67.8138 2.36523L67.3889 1.46Q66.5123 1.87144 65.5214 2.28301L65.905 3.20652ZM62.171 4.61685Q63.1701 4.27177 64.1012 3.92019L63.748 2.98465Q62.8302 3.33119 61.8445 3.67165L62.171 4.61685ZM58.2942 5.85531Q59.3291 5.5488 60.3113 5.2347L60.0067 4.28222Q59.0347 4.59306 58.0102 4.89648L58.2942 5.85531ZM-0.299743 7.86299Q-0.339159 7.89251 -0.372058 7.92916Q-0.404956 7.9658 -0.430074 8.00816Q-0.455191 8.05052 -0.471562 8.09696Q-0.487934 8.14341 -0.494929 8.19216Q-0.501925 8.2409 -0.499276 8.29008Q-0.496627 8.33925 -0.484436 8.38696Q-0.472245 8.43468 -0.45098 8.47909Q-0.429714 8.52351 -0.400192 8.56293L2.59724 12.5649Q2.65686 12.6445 2.74241 12.6952Q2.82796 12.7459 2.92641 12.76Q3.02485 12.7742 3.12121 12.7495Q3.21757 12.7249 3.29718 12.6653Q3.37678 12.6057 3.42751 12.5201Q3.47824 12.4346 3.49236 12.3361L3.93625 9.24309L4.54237 9.31144L4.65443 8.31774L4.07837 8.25278L4.49685 5.33678Q4.50385 5.28803 4.5012 5.23886Q4.49855 5.18968 4.48636 5.14197Q4.47417 5.09426 4.4529 5.04984Q4.43164 5.00542 4.40211 4.96601Q4.37259 4.92659 4.33595 4.89369Q4.2993 4.86079 4.25694 4.83568Q4.21459 4.81056 4.16814 4.79419Q4.1217 4.77782 4.07295 4.77082Q3.9745 4.75669 3.87814 4.78131Q3.78178 4.80593 3.70218 4.86556L-0.299743 7.86299ZM54.5036 6.9063L56.4663 6.37927L56.207 5.41348L54.2442 5.94051L54.5036 6.9063ZM50.6449 7.84985L52.5017 7.41004L52.2712 6.43696L50.4144 6.87678L50.6449 7.84985ZM46.5888 8.72973L48.6666 8.29205L48.4605 7.31352L46.3826 7.7512L46.5888 8.72973ZM42.7307 9.40698Q43.7233 9.2601 44.6737 9.09367L44.5012 8.10865Q43.5638 8.27281 42.5843 8.41775L42.7307 9.40698ZM6.36693 9.49824L8.42204 9.68963L8.51477 8.69394L6.45966 8.50255L6.36693 9.49824ZM38.745 9.90068Q39.7672 9.79687 40.7521 9.67515L40.6295 8.6827Q39.6553 8.80309 38.644 8.9058L38.745 9.90068ZM10.4712 9.86101L12.402 10.0048L12.4763 9.00758L10.5455 8.86377L10.4712 9.86101ZM34.6781 10.2335L36.7119 10.0864L36.6398 9.08902L34.606 9.23606L34.6781 10.2335ZM14.4517 10.1386L16.4976 10.2522L16.5531 9.25374L14.5071 9.14009L14.4517 10.1386ZM18.3884 10.3391L20.3231 10.4093L20.3594 9.40994L18.4247 9.33975L18.3884 10.3391ZM30.565 10.4261L32.6197 10.3464L32.581 9.34712L30.5263 9.42686L30.565 10.4261ZM22.3143 10.4609L24.3328 10.4909L24.3476 9.49097L22.3292 9.46103L22.3143 10.4609ZM26.3938 10.4968L28.4649 10.4762L28.4549 9.47628L26.3838 9.4969L26.3938 10.4968Z " /><path  id="箭头 2" style="stroke:#FF5733; stroke-width:1; stroke-opacity:1; stroke-dasharray:2 2" transform="translate(370 290)  rotate(0 35.50000000000001 4.999999999999999)" d="" /><path id="箭头 2"  style="fill:#FF5733" transform="translate(519 144.88210874540243)  rotate(0 75.75 75.40921584261638)" opacity="1" d="M151.004 0.532906Q151.245 0.561531 151.339 0.593406L151.661 -0.353406Q151.467 -0.419143 151.121 -0.460147Q150.481 -0.536002 149.678 -0.461141L149.77 0.534549Q150.469 0.469501 151.004 0.532906ZM146.084 1.49907Q146.994 1.13894 147.834 0.906248L147.567 -0.0574763Q146.675 0.189479 145.716 0.569321L146.084 1.49907ZM142.613 3.20128Q143.385 2.75681 144.128 2.38257L143.678 1.48947Q142.91 1.87626 142.114 2.33451L142.613 3.20128ZM139.119 5.46471Q140.046 4.80103 140.943 4.22159L140.401 3.38159Q139.484 3.97398 138.537 4.65139L139.119 5.46471ZM135.951 7.90273Q136.738 7.25661 137.506 6.66383L136.895 5.87205Q136.115 6.47418 135.317 7.1301L135.951 7.90273ZM132.973 10.4832Q133.696 9.82548 134.407 9.20828L133.751 8.45325Q133.032 9.07802 132.3 9.74339L132.973 10.4832ZM130.049 13.2576Q130.768 12.5481 131.476 11.8749L130.788 11.1499Q130.071 11.8304 129.347 12.5458L130.049 13.2576ZM127.281 16.083Q127.99 15.336 128.688 14.6238L127.974 13.9239Q127.27 14.6423 126.556 15.3947L127.281 16.083ZM124.594 18.9975L125.872 17.5908L125.132 16.9183L123.854 18.3249L124.594 18.9975ZM121.945 22.0243L123.29 20.4686L122.534 19.8144L121.188 21.3701L121.945 22.0243ZM119.41 25.0537L120.624 23.5863L119.854 22.9487L118.64 24.4161L119.41 25.0537ZM116.91 28.1621L118.176 26.5737L117.394 25.9506L116.128 27.5389L116.91 28.1621ZM114.433 31.3552L115.624 29.8058L114.832 29.1962L113.64 30.7456L114.433 31.3552ZM112.091 34.4718L113.274 32.8859L112.472 32.2879L111.289 33.8739L112.091 34.4718ZM109.669 37.7897L110.892 36.1025L110.082 35.5157L108.86 37.2029L109.669 37.7897ZM107.402 40.9816L108.506 39.4178L107.689 38.8411L106.585 40.4049L107.402 40.9816ZM105.151 44.2275L106.286 42.5816L105.462 42.014L104.328 43.66L105.151 44.2275ZM102.838 47.6412L104.004 45.9109L103.175 45.3522L102.009 47.0824L102.838 47.6412ZM100.676 50.9018L101.73 49.3035L100.896 48.7528L99.8413 50.3511L100.676 50.9018ZM98.5327 54.1976L99.6117 52.5306L98.7722 51.9872L97.6932 53.6542L98.5327 54.1976ZM96.34 57.633L97.4437 55.8959L96.5996 55.3597L95.496 57.0968L96.34 57.633ZM94.9238 59.8853L95.2258 59.4029L94.3782 58.8723L94.0762 59.3547L93.2833 60.6153L94.1298 61.1477L94.9238 59.8853ZM91.9391 64.5539L93.0356 62.8628L92.1965 62.3187L91.1 64.0098L91.9391 64.5539ZM89.7252 67.8879L90.8329 66.233L90.0018 65.6768L88.8941 67.3317L89.7252 67.8879ZM87.4906 71.1499L88.6083 69.5309L87.7853 68.9627L86.6676 70.5818L87.4906 71.1499ZM85.1511 74.4607L86.3278 72.8085L85.5132 72.2284L84.3366 73.8806L85.1511 74.4607ZM82.781 77.713L83.9659 76.0994L83.1599 75.5075L81.975 77.121L82.781 77.713ZM80.396 80.8879L81.588 79.313L80.7906 78.7095L79.5986 80.2845L80.396 80.8879ZM77.9406 84.0604L79.195 82.4514L78.4064 81.8366L77.152 83.4455L77.9406 84.0604ZM75.4197 87.2213L76.679 85.6541L75.8995 85.0277L74.6402 86.5949L75.4197 87.2213ZM72.8916 90.299L74.1541 88.7733L73.3837 88.1357L72.1212 89.6614L72.8916 90.299ZM70.3184 93.3415L71.6234 91.8095L70.8622 91.161L69.5571 92.693L70.3184 93.3415ZM67.6542 96.4008L68.9838 94.8852L68.2321 94.2257L66.9025 95.7413L67.6542 96.4008ZM64.9921 99.3698L66.3203 97.8992L65.5781 97.229L64.25 98.6995L64.9921 99.3698ZM62.2951 102.293L63.6606 100.823L62.9281 100.143L61.5626 101.612L62.2951 102.293ZM59.4975 105.238L60.8922 103.78L60.1697 103.089L58.775 104.547L59.4975 105.238ZM56.7144 108.085L58.1014 106.676L57.3889 105.974L56.0019 107.383L56.7144 108.085ZM53.8813 110.9L55.3271 109.474L54.6247 108.762L53.1788 110.189L53.8813 110.9ZM50.9655 113.716L52.4172 112.324L51.7252 111.602L50.2735 112.994L50.9655 113.716ZM48.0807 116.422L49.5163 115.085L48.8348 114.353L47.3992 115.69L48.0807 116.422ZM45.0905 119.146L46.6105 117.771L45.9396 117.03L44.4197 118.404L45.0905 119.146ZM42.0814 121.808L43.5769 120.495L42.9171 119.743L41.4216 121.056L42.0814 121.808ZM39.0859 124.381L40.594 123.095L39.9451 122.334L38.4371 123.62L39.0859 124.381ZM35.9494 126.995L37.5055 125.708L36.8681 124.938L35.3121 126.225L35.9494 126.995ZM32.8914 129.468L34.4072 128.251L33.7814 127.471L32.2656 128.688L32.8914 129.468ZM29.5246 132.104L31.229 130.781L30.6156 129.991L28.9112 131.315L29.5246 132.104ZM26.2073 134.617L27.8459 133.386L27.2454 132.587L25.6069 133.817L26.2073 134.617ZM23.0313 136.943L24.5978 135.805L24.01 134.996L22.4436 136.134L23.0313 136.943ZM20.0089 139.086L21.497 138.04L20.9218 137.222L19.4336 138.268L20.0089 139.086ZM16.6583 141.381L18.3499 140.233L17.7884 139.406L16.0968 140.553L16.6583 141.381ZM13.3637 143.553L15.026 142.468L14.4792 141.631L12.8169 142.716L13.3637 143.553ZM9.97205 145.7L11.6106 144.674L11.0802 143.827L9.44156 144.852L9.97205 145.7ZM-0.44883 151.039Q-0.405001 151.128 -0.330342 151.194Q-0.255683 151.259 -0.161562 151.292L4.57023 152.907Q4.61683 152.923 4.66564 152.93Q4.71446 152.936 4.7636 152.933Q4.81275 152.93 4.86034 152.917Q4.90793 152.905 4.95213 152.883Q4.99634 152.861 5.03546 152.831Q5.07459 152.801 5.10712 152.764Q5.13966 152.727 5.16436 152.685Q5.18905 152.642 5.20497 152.596Q5.2371 152.501 5.23078 152.402Q5.22445 152.303 5.18062 152.214L3.77865 149.358L4.76386 148.804L4.27389 147.933L3.33728 148.459L2.06444 145.866Q2.02062 145.777 1.94596 145.711Q1.8713 145.646 1.77718 145.613Q1.68306 145.581 1.5838 145.588Q1.48455 145.594 1.39527 145.638Q1.30599 145.682 1.24028 145.756Q1.17457 145.831 1.14244 145.925L-0.473178 150.657Q-0.505315 150.751 -0.498987 150.85Q-0.492659 150.949 -0.44883 151.039ZM6.49662 147.799L8.21809 146.773L7.70591 145.914L5.98444 146.94L6.49662 147.799Z " /><path  id="箭头 2" style="stroke:#FF5733; stroke-width:1; stroke-opacity:1; stroke-dasharray:2 2" transform="translate(519 144.88210874540243)  rotate(0 75.75 75.40921584261638)" d="" /><path id="箭头 3"  style="fill:#FF5733" transform="translate(52 46)  rotate(0 44.5 25)" opacity="1" d="M88.2059 1.71558Q88.973 0.823299 89.3872 0.316374L88.6128 -0.316374Q88.2067 0.180686 87.4476 1.06371L88.2059 1.71558ZM85.5397 4.7337L86.8424 3.27834L86.0973 2.6114L84.7946 4.06676L85.5397 4.7337ZM82.7317 7.7656L84.1776 6.22135L83.4477 5.53786L82.0017 7.0821L82.7317 7.7656ZM79.9954 10.5953L81.4083 9.14899L80.6929 8.45021L79.2801 9.89653L79.9954 10.5953ZM77.1217 13.4424L78.4961 12.0964L77.7964 11.3819L76.422 12.7279L77.1217 13.4424ZM74.1853 16.2222L75.6781 14.8253L74.9948 14.0951L73.502 15.492L74.1853 16.2222ZM71.2046 18.9097L72.6765 17.5995L72.0117 16.8526L70.5397 18.1627L71.2046 18.9097ZM68.1302 21.5372Q68.9057 20.8934 69.685 20.227L69.0352 19.4669Q68.2611 20.1287 67.4914 20.7679L68.1302 21.5372ZM64.9827 24.0701Q65.768 23.4585 66.5591 22.8218L65.9321 22.0428Q65.1472 22.6745 64.3683 23.2811L64.9827 24.0701ZM61.749 26.4991Q62.5597 25.9129 63.3785 25.2976L62.7777 24.4982Q61.9664 25.1079 61.1631 25.6887L61.749 26.4991ZM58.4244 28.8027Q59.2557 28.2523 60.0968 27.6692L59.5271 26.8474Q58.6949 27.4243 57.8723 27.9689L58.4244 28.8027ZM55.0291 30.9387Q55.8758 30.4347 56.7343 29.8943L56.2016 29.048Q55.3538 29.5816 54.5176 30.0794L55.0291 30.9387ZM51.6252 32.8449Q52.5047 32.3816 53.3284 31.9208L52.8401 31.0481Q52.0274 31.5028 51.1592 31.9601L51.6252 32.8449ZM48.0084 34.6493Q48.9542 34.201 49.8494 33.7546L49.4032 32.8597Q48.5168 33.3016 47.5801 33.7457L48.0084 34.6493ZM44.3139 36.3243L46.1063 35.5297L45.7011 34.6155L43.9086 35.4101L44.3139 36.3243ZM40.6178 37.8719L42.4752 37.1083L42.0949 36.1834L40.2376 36.947L40.6178 37.8719ZM36.8213 39.3564L38.7247 38.6241L38.3656 37.6908L36.4622 38.4231L36.8213 39.3564ZM34.6995 40.1471L34.8941 40.0756L34.5494 39.1369L34.3548 39.2084L32.6244 39.8348L32.9649 40.7751L34.6995 40.1471ZM29.1057 42.1192L31.029 41.4581L30.7039 40.5124L28.7806 41.1735L29.1057 42.1192ZM25.2913 43.3835L27.1865 42.7627L26.8752 41.8124L24.9801 42.4331L25.2913 43.3835ZM21.5703 44.5626L23.4132 43.985L23.1141 43.0307L21.2712 43.6084L21.5703 44.5626ZM17.715 45.7334L19.7341 45.1264L19.4462 44.1688L17.4271 44.7758L17.715 45.7334ZM-0.42482 49.7363Q-0.45079 49.7782 -0.468099 49.8243Q-0.485408 49.8704 -0.49339 49.919Q-0.501371 49.9676 -0.49972 50.0168Q-0.498068 50.066 -0.486846 50.1139Q-0.475623 50.1619 -0.455262 50.2067Q-0.434901 50.2516 -0.406184 50.2916Q-0.377466 50.3316 -0.341496 50.3652Q-0.305525 50.3988 -0.263684 50.4248L3.98451 53.0616Q4.06901 53.1141 4.16715 53.1302Q4.26529 53.1463 4.36213 53.1237Q4.45897 53.101 4.53976 53.043Q4.62056 52.985 4.67301 52.9005Q4.72546 52.816 4.74158 52.7179Q4.7577 52.6197 4.73503 52.5229L4.0315 49.5168L4.04389 49.5137L3.86233 48.794L3.12368 45.6379Q3.10101 45.541 3.04301 45.4602Q2.98502 45.3794 2.90052 45.327Q2.81601 45.2745 2.71787 45.2584Q2.61973 45.2423 2.52289 45.265Q2.42605 45.2876 2.34526 45.3456Q2.26446 45.4036 2.21201 45.4881L-0.42482 49.7363ZM13.8708 46.8534L15.7539 46.3105L15.4769 45.3496L13.5938 45.8925L13.8708 46.8534ZM9.93526 47.9535L12.0426 47.3702L11.7758 46.4064L9.66847 46.9898L9.93526 47.9535ZM6.20516 48.9537L7.98015 48.483L7.7238 47.5164L5.94881 47.9872L6.20516 48.9537Z " /><path  id="箭头 3" style="stroke:#FF5733; stroke-width:1; stroke-opacity:1; stroke-dasharray:2 2" transform="translate(52 46)  rotate(0 44.5 25)" d="" /><path id="箭头 3"  style="fill:#FF5733" transform="translate(52 110)  rotate(0 38 30.5)" opacity="1" d="M-0.316578 -0.387012Q-0.354696 -0.355832 -0.385998 -0.317814Q-0.417299 -0.279797 -0.440583 -0.236403Q-0.463867 -0.193009 -0.478237 -0.145907Q-0.492608 -0.0988049 -0.497513 -0.0498041Q-0.502419 -0.0008033 -0.49767 0.0482129Q-0.492921 0.0972291 -0.478702 0.144377Q-0.464482 0.191525 -0.441337 0.234993Q-0.418192 0.278461 -0.387012 0.316578L2.77877 4.1867Q2.84174 4.26368 2.92938 4.3107Q3.01702 4.35773 3.11598 4.36763Q3.21494 4.37754 3.31016 4.34882Q3.40538 4.3201 3.48236 4.25713Q3.55934 4.19416 3.60637 4.10652Q3.65339 4.01888 3.6633 3.91992L3.95418 1.01417L4.23628 1.05369L4.375 0.0633556L4.05386 0.0183719L4.36763 -3.11598Q4.37254 -3.16498 4.36779 -3.214Q4.36304 -3.26301 4.34882 -3.31016Q4.3346 -3.35731 4.31146 -3.40078Q4.28831 -3.44424 4.25713 -3.48236Q4.22595 -3.52048 4.18793 -3.55178Q4.14992 -3.58308 4.10652 -3.60637Q4.06313 -3.62965 4.01603 -3.64402Q3.96892 -3.65839 3.91992 -3.6633Q3.82096 -3.6732 3.72574 -3.64448Q3.63052 -3.61577 3.55354 -3.55279L-0.316578 -0.387012ZM6.23346 1.36242L8.14337 1.68273L8.30877 0.696507L6.39886 0.376192L6.23346 1.36242ZM10.2257 2.0593L12.1728 2.43727L12.3634 1.4556L10.4163 1.07763L10.2257 2.0593ZM14.0708 2.83028L16.0617 3.26939L16.2771 2.29286L14.2862 1.85375L14.0708 2.83028ZM18.0837 3.74471L19.9272 4.20516L20.1696 3.23496L18.3261 2.77451L18.0837 3.74471ZM21.7917 4.69861L23.697 5.23359L23.9673 4.27082L22.062 3.73584L21.7917 4.69861ZM25.6094 5.804Q26.5861 6.10431 27.5357 6.41511L27.8468 5.46472Q26.8886 5.15111 25.9033 4.84816L25.6094 5.804ZM29.4642 7.06689Q30.4416 7.40802 31.3866 7.76035L31.7359 6.82336Q30.7811 6.46734 29.7937 6.12274L29.4642 7.06689ZM33.2948 8.49649Q34.2451 8.8758 35.1582 9.2666L35.5517 8.34726Q34.6272 7.95158 33.6656 7.56774L33.2948 8.49649ZM36.9876 10.0782Q37.9047 10.5001 38.7798 10.9341L39.2241 10.0382Q38.3358 9.5977 37.4055 9.16974L36.9876 10.0782ZM40.527 11.8351Q41.4279 12.3183 42.2786 12.8153L42.783 11.9519Q41.9166 11.4457 40.9997 10.9538L40.527 11.8351ZM43.9952 13.8648Q44.8442 14.4086 45.6353 14.9671L46.2121 14.1502Q45.4026 13.5786 44.5345 13.0227L43.9952 13.8648ZM47.6847 16.5181Q48.169 16.9116 48.6555 17.3346L49.3117 16.58Q48.8125 16.1459 48.3153 15.7419Q48.0646 15.5381 47.8069 15.3361L47.1899 16.123Q47.4407 16.3197 47.6847 16.5181ZM50.0905 18.6422Q50.7952 19.3137 51.5035 20.0456L52.2221 19.3501Q51.4998 18.6037 50.7803 17.9182L50.0905 18.6422ZM52.8928 21.5355Q53.5444 22.2596 54.1981 23.0336L54.962 22.3883Q54.2981 21.6023 53.6362 20.8666L52.8928 21.5355ZM55.4458 24.5537Q56.0565 25.3186 56.6685 26.126L57.4654 25.522Q56.8459 24.7046 56.2273 23.9298L55.4458 24.5537ZM57.8646 27.7431Q58.4487 28.5516 59.0334 29.3981L59.8562 28.8297Q59.2654 27.9745 58.6753 27.1575L57.8646 27.7431ZM60.1739 31.0842Q60.7291 31.922 61.2839 32.7927L62.1273 32.2553Q61.5675 31.377 61.0075 30.5318L60.1739 31.0842ZM62.3602 34.513L63.4093 36.2505L64.2653 35.7337L63.2162 33.9961L62.3602 34.513ZM64.4166 37.9755L65.3951 39.705L66.2654 39.2125L65.2869 37.4831L64.4166 37.9755ZM66.3306 41.4085L67.2337 43.1001L68.1158 42.6291L67.2128 40.9375L66.3306 41.4085ZM68.1704 44.9047L69.0991 46.7451L69.9919 46.2946L69.0632 44.4542L68.1704 44.9047ZM69.9684 48.5157L70.7859 50.2244L71.6879 49.7929L70.8705 48.0841L69.9684 48.5157ZM71.6908 52.1679L72.53 54.0221L73.441 53.6098L72.6018 51.7555L71.6908 52.1679ZM73.2694 55.7004L74.1425 57.7429L75.062 57.3498L74.1889 55.3073L73.2694 55.7004ZM74.8467 59.4468Q75.2967 60.5551 75.5324 61.1772L76.4676 60.8228Q76.2277 60.1899 75.7732 59.0706L74.8467 59.4468Z " /><path  id="箭头 3" style="stroke:#FF5733; stroke-width:1; stroke-opacity:1; stroke-dasharray:2 2" transform="translate(52 110)  rotate(0 38 30.5)" d="" /><path id="箭头 3"  style="fill:#FF5733" transform="translate(52 140)  rotate(0 120.25 77.75)" opacity="1" d="M0.258183 -0.428184Q0.216011 -0.453613 0.169688 -0.470325Q0.123365 -0.487038 0.0746716 -0.494393Q0.0259781 -0.501747 -0.0232144 -0.499461Q-0.072407 -0.497174 -0.120208 -0.485335Q-0.16801 -0.473495 -0.212583 -0.452558Q-0.257156 -0.43162 -0.296788 -0.402389Q-0.336419 -0.373158 -0.369587 -0.336757Q-0.402755 -0.300356 -0.428184 -0.258183L-3.01002 4.02365Q-3.03545 4.06583 -3.05216 4.11215Q-3.06887 4.15847 -3.07623 4.20717Q-3.08358 4.25586 -3.0813 4.30505Q-3.07901 4.35424 -3.06717 4.40205Q-3.05533 4.44985 -3.03439 4.49442Q-3.01345 4.53899 -2.98422 4.57862Q-2.95499 4.61826 -2.91859 4.65142Q-2.88219 4.68459 -2.84002 4.71002Q-2.75485 4.76138 -2.65651 4.77623Q-2.55817 4.79108 -2.46163 4.76717L0.635579 4.00005L1.25522 5.9334L2.2075 5.6282L1.60846 3.75909L4.40205 3.06717Q4.44985 3.05533 4.49442 3.03439Q4.53899 3.01345 4.57862 2.98422Q4.61826 2.95499 4.65142 2.91859Q4.68459 2.88219 4.71002 2.84002Q4.73545 2.79785 4.75216 2.75152Q4.76888 2.7052 4.77623 2.65651Q4.78358 2.60781 4.7813 2.55862Q4.77901 2.50943 4.76717 2.46163Q4.74326 2.36509 4.68423 2.28505Q4.62519 2.20501 4.54002 2.15365L0.258183 -0.428184ZM1.87095 7.7606L2.57233 9.75191L3.51553 9.41969L2.81416 7.42839L1.87095 7.7606ZM3.23101 11.5486L3.95673 13.4571L4.89144 13.1017L4.16572 11.1932L3.23101 11.5486ZM4.69872 15.3407L5.43553 17.1506L6.36172 16.7736L5.62492 14.9636L4.69872 15.3407ZM6.23246 19.047L7.01464 20.8521L7.9322 20.4545L7.15001 18.6494L6.23246 19.047ZM7.77389 22.5553L8.57063 24.2947L9.47978 23.8782L8.68304 22.1389L7.77389 22.5553ZM9.41428 26.0867L10.2965 27.9097L11.1966 27.4741L10.3144 25.6511L9.41428 26.0867ZM11.2275 29.7808L12.198 31.6774L13.0883 31.2219L12.1177 29.3252L11.2275 29.7808ZM13.1734 33.5315L14.0709 35.1945L14.9509 34.7195L14.0534 33.0566L13.1734 33.5315ZM15.0069 36.887L15.9719 38.5896L16.8419 38.0965L15.8769 36.394L15.0069 36.887ZM16.9768 40.3191L18.011 42.0552L18.8701 41.5434L17.8359 39.8073L16.9768 40.3191ZM19.0864 43.8154L20.1916 45.5788L21.039 45.0478L19.9338 43.2843L19.0864 43.8154ZM21.3391 47.3634L22.4111 48.9895L23.246 48.4391L22.1741 46.813L21.3391 47.3634ZM23.4979 50.5995L24.6084 52.2061L25.431 51.6375L24.3205 50.0309L23.4979 50.5995ZM25.7555 53.8265L26.9264 55.441L27.7359 54.8539L26.565 53.2394L25.7555 53.8265ZM28.1351 57.0673L29.3677 58.6855L30.1632 58.0795L28.9305 56.4614L28.1351 57.0673ZM30.6392 60.3134L31.9348 61.9308L32.7153 61.3055L31.4197 59.6882L30.6392 60.3134ZM33.2393 63.5185L34.5112 65.0287L35.2761 64.3845L34.0041 62.8743L33.2393 63.5185ZM35.8196 66.5445L37.1488 68.0465L37.8977 67.3837L36.5685 65.8817L35.8196 66.5445ZM38.5156 69.5524L39.8873 71.0258L40.6192 70.3444L39.2475 68.871L38.5156 69.5524ZM41.2602 72.4637L42.652 73.885L43.3665 73.1853L41.9747 71.7641L41.2602 72.4637ZM44.0808 75.3071L45.5286 76.7109L46.2247 75.993L44.777 74.5892L44.0808 75.3071ZM47.0111 78.111L48.4634 79.4467L49.1403 78.7107L47.6881 77.375L47.0111 78.111ZM49.9522 80.7806L51.4583 82.0941L52.1156 81.3405L50.6095 80.0269L49.9522 80.7806ZM53.0018 83.4043L54.5624 84.6927L55.1991 83.9216L53.6385 82.6331L53.0018 83.4043ZM56.1274 85.9493L57.6879 87.1677L58.3033 86.3795L56.7429 85.1611L56.1274 85.9493ZM59.2853 88.3804L60.8982 89.5701L61.4918 88.7653L59.8789 87.5756L59.2853 88.3804ZM64.2146 91.9105Q64.252 91.9366 64.2935 91.9554L64.7073 91.0451Q64.7472 91.0632 64.7832 91.0879L63.1198 89.9315L62.5489 90.7525L64.2121 91.9088L64.2146 91.9105ZM65.8111 92.9857L67.4417 94.049L67.9879 93.2114L66.3573 92.1481L65.8111 92.9857ZM69.1292 95.1161L70.8494 96.1721L71.3726 95.3199L69.6524 94.2638L69.1292 95.1161ZM72.6227 97.2306L74.4272 98.2789L74.9295 97.4142L73.125 96.3659L72.6227 97.2306ZM76.1223 99.2394L77.8318 100.186L78.3163 99.3114L76.6068 98.3646L76.1223 99.2394ZM79.5804 101.134L81.3513 102.073L81.8199 101.189L80.0489 100.25L79.5804 101.134ZM83.1589 103.012L84.9873 103.943L85.4411 103.052L83.6127 102.121L83.1589 103.012ZM86.8127 104.855L88.566 105.716L89.0066 104.818L87.2533 103.958L86.8127 104.855ZM90.347 106.575L92.1435 107.428L92.5723 106.525L90.7758 105.672L90.347 106.575ZM93.9658 108.279L95.8022 109.124L96.2201 108.215L94.3836 107.371L93.9658 108.279ZM97.6626 109.966L99.522 110.796L99.9296 109.883L98.0701 109.053L97.6626 109.966ZM101.327 111.59L103.141 112.378L103.54 111.461L101.725 110.673L101.327 111.59ZM104.975 113.164L106.817 113.944L107.207 113.023L105.364 112.243L104.975 113.164ZM108.676 114.721L110.544 115.491L110.925 114.567L109.058 113.796L108.676 114.721ZM112.426 116.259L114.273 117.004L114.647 116.076L112.8 115.332L112.426 116.259ZM116.111 117.736L117.953 118.463L118.32 117.533L116.477 116.806L116.111 117.736ZM119.808 119.187L121.666 119.904L122.026 118.971L120.168 118.254L119.808 119.187ZM123.534 120.618L125.406 121.327L125.76 120.391L123.888 119.683L123.534 120.618ZM127.286 122.031L129.168 122.73L129.515 121.792L127.634 121.094L127.286 122.031ZM131.056 123.424L132.946 124.112L133.289 123.173L131.399 122.484L131.056 123.424ZM134.842 124.797L136.737 125.475L137.074 124.533L135.179 123.855L134.842 124.797ZM138.637 126.148L140.535 126.815L140.866 125.872L138.968 125.205L138.637 126.148ZM142.44 127.48L144.366 128.145L144.693 127.2L142.766 126.534L142.44 127.48ZM146.294 128.806L148.218 129.46L148.54 128.514L146.616 127.859L146.294 128.806ZM150.142 130.109L152.061 130.752L152.378 129.803L150.459 129.161L150.142 130.109ZM153.979 131.389L155.891 132.019L156.204 131.069L154.292 130.439L153.979 131.389ZM157.8 132.643L159.701 133.26L160.01 132.309L158.109 131.692L157.8 132.643ZM161.599 133.872L163.488 134.476L163.792 133.524L161.904 132.92L161.599 133.872ZM165.371 135.075L167.244 135.666L167.545 134.712L165.672 134.121L165.371 135.075ZM169.111 136.251L170.966 136.829L171.263 135.874L169.408 135.296L169.111 136.251ZM172.909 137.43L174.855 138.027L175.148 137.071L173.203 136.474L172.909 137.43ZM176.79 138.617L178.709 139.199L178.999 138.242L177.08 137.66L176.79 138.617ZM180.616 139.773L182.506 140.338L182.793 139.38L180.903 138.815L180.616 139.773ZM184.382 140.895L186.325 141.469L186.608 140.51L184.665 139.936L184.382 140.895ZM188.298 142.048L190.248 142.616L190.528 141.656L188.578 141.088L188.298 142.048ZM192.178 143.175L194.082 143.723L194.359 142.762L192.454 142.214L192.178 143.175ZM195.965 144.261L197.82 144.788L198.094 143.826L196.238 143.299L195.965 144.261ZM199.826 145.354L201.811 145.911L202.081 144.948L200.096 144.392L199.826 145.354ZM203.763 146.456L205.679 146.986L205.946 146.022L204.03 145.492L203.763 146.456ZM207.559 147.503L209.399 148.007L209.663 147.042L207.822 146.539L207.559 147.503ZM211.419 148.556L213.427 149.098L213.688 148.132L211.68 147.59L211.419 148.556ZM215.381 149.622L217.276 150.126L217.533 149.16L215.639 148.655L215.381 149.622ZM219.112 150.612L221.078 151.129L221.332 150.162L219.366 149.645L219.112 150.612ZM223.132 151.665L225.087 152.172L225.338 151.204L223.383 150.697L223.132 151.665ZM226.944 152.649L228.772 153.116L229.019 152.147L227.191 151.68L226.944 152.649ZM230.917 153.659L232.863 154.148L233.106 153.178L231.16 152.69L230.917 153.659ZM234.606 154.582L236.791 155.12L237.03 154.149L234.845 153.611L234.606 154.582ZM238.581 155.555L240.384 155.986L240.616 155.014L238.813 154.582L238.581 155.555Z " /><path  id="箭头 3" style="stroke:#FF5733; stroke-width:1; stroke-opacity:1; stroke-dasharray:2 2" transform="translate(52 140)  rotate(0 120.25 77.75)" d="" /><path id="箭头 3"  style="fill:#FF5733" transform="translate(205 185)  rotate(0 44.5 42.5)" opacity="1" d="M-0.49649 -0.0591402Q-0.508254 0.0396178 -0.481329 0.13536Q-0.454404 0.231102 -0.39289 0.309253L2.69964 4.23815Q2.76115 4.3163 2.84789 4.36496Q2.93463 4.41363 3.03339 4.42539Q3.13215 4.43715 3.22789 4.41023Q3.32363 4.3833 3.40178 4.32179Q3.47993 4.26028 3.52859 4.17354Q3.57726 4.0868 3.58902 3.98804L3.93343 1.09667L4.07803 1.12008L4.23784 0.132927L4.05182 0.102813L4.42539 -3.03339Q4.43121 -3.08229 4.42739 -3.13139Q4.42356 -3.18048 4.41023 -3.22789Q4.3969 -3.2753 4.37457 -3.31919Q4.35225 -3.36309 4.32179 -3.40178Q4.29133 -3.44048 4.25391 -3.47249Q4.21649 -3.5045 4.17354 -3.52859Q4.13059 -3.55269 4.08376 -3.56794Q4.03694 -3.58319 3.98804 -3.58902Q3.88928 -3.60078 3.79354 -3.57386Q3.6978 -3.54693 3.61965 -3.48542L-0.309253 -0.39289Q-0.387404 -0.331376 -0.436065 -0.244637Q-0.484726 -0.157898 -0.49649 -0.0591402ZM6.29324 1.51304L8.07771 1.85452L8.26566 0.872337L6.48119 0.53086L6.29324 1.51304ZM10.0185 2.25026L12.1237 2.70788L12.3361 1.7307L10.2309 1.27308L10.0185 2.25026ZM14.0365 3.14945L15.9145 3.6072L16.1513 2.63565L14.2733 2.17789L14.0365 3.14945ZM17.85 4.10474L19.8594 4.64988L20.1212 3.68476L18.1118 3.13963L17.85 4.10474ZM21.8043 5.20634L23.6714 5.76841L23.9596 4.81086L22.0926 4.2488L21.8043 5.20634ZM25.5538 6.36416L27.4732 7.0033L27.7892 6.05452L25.8697 5.41537L25.5538 6.36416ZM29.3947 7.67708L31.2763 8.37204L31.6228 7.43397L29.7411 6.73901L29.3947 7.67708ZM33.1155 9.08726Q34.0486 9.4596 34.9578 9.84204L35.3455 8.92027Q34.4278 8.53423 33.4861 8.15847L33.1155 9.08726ZM36.7942 10.6357Q37.7205 11.0469 38.6197 11.4689L39.0445 10.5637Q38.1359 10.1372 37.2 9.72172L36.7942 10.6357ZM40.4232 12.3398Q41.3277 12.7891 42.2017 13.2494L42.6677 12.3646Q41.7833 11.8988 40.8681 11.4442L40.4232 12.3398ZM43.954 14.2004Q44.8315 14.6913 45.6752 15.1936L46.1868 14.3344Q45.3315 13.8252 44.4422 13.3277L43.954 14.2004ZM47.3601 16.2297Q48.2126 16.7712 49.0272 17.3253L49.5896 16.4985Q48.7621 15.9356 47.8963 15.3856L47.3601 16.2297ZM50.6688 18.4828Q51.4838 19.0787 52.2559 19.6878L52.8752 18.9027Q52.0887 18.2822 51.2591 17.6756L50.6688 18.4828ZM53.7829 20.9411Q54.5368 21.5854 55.2444 22.2435L55.9254 21.5112Q55.2024 20.8388 54.4325 20.1809L53.7829 20.9411ZM56.6095 23.5683Q57.2669 24.2332 57.9276 24.9527L58.6642 24.2764Q57.991 23.5432 57.3206 22.8652L56.6095 23.5683ZM59.2305 26.4216Q59.8724 27.1695 60.5173 27.9687L61.2955 27.3407Q60.6411 26.5297 59.9894 25.7703L59.2305 26.4216ZM61.7868 29.5881Q62.3903 30.3796 62.9959 31.2153L63.8056 30.6285Q63.1928 29.7829 62.5821 28.9818L61.7868 29.5881ZM64.1201 32.8023Q64.6732 33.6003 65.2278 34.4348L66.0607 33.8813Q65.5006 33.0386 64.9421 32.2327L64.1201 32.8023ZM66.3181 36.1083Q66.8539 36.9468 67.3904 37.8182L68.242 37.2939Q67.7008 36.4151 67.1608 35.5699L66.3181 36.1083ZM68.4422 39.5569L69.4567 41.2917L70.32 40.7868L69.3054 39.052L68.4422 39.5569ZM70.4357 43.0192L71.4016 44.775L72.2778 44.293L71.3119 42.5372L70.4357 43.0192ZM72.3418 46.5334L73.2666 48.3106L74.1537 47.8489L73.2288 46.0718L72.3418 46.5334ZM74.1655 50.0831L75.0693 51.9107L75.9657 51.4674L75.0619 49.6398L74.1655 50.0831ZM75.9499 53.7351L76.8099 55.5592L77.7144 55.1328L76.8544 53.3086L75.9499 53.7351ZM77.6414 57.3627L78.4506 59.1562L79.3621 58.7449L78.5529 56.9515L77.6414 57.3627ZM79.2418 60.9468L80.0783 62.8803L80.9961 62.4832L80.1596 60.5497L79.2418 60.9468ZM80.8779 64.768L81.6454 66.6173L82.569 66.234L81.8015 64.3846L80.8779 64.768ZM82.3747 68.4091L83.0704 70.151L83.999 69.78L83.3033 68.0382L82.3747 68.4091ZM83.8717 72.198L84.6173 74.1437L85.5511 73.7859L84.8055 71.8401L83.8717 72.198ZM85.3008 75.964L85.9251 77.6597L86.8636 77.3142L86.2392 75.6185L85.3008 75.964ZM86.6162 79.5761L87.2715 81.4366L88.2147 81.1044L87.5594 79.2439L86.6162 79.5761ZM87.9027 83.2762Q88.3109 84.4837 88.5236 85.1517L89.4764 84.8483Q89.2613 84.1725 88.85 82.956L87.9027 83.2762Z " /><path  id="箭头 3" style="stroke:#FF5733; stroke-width:1; stroke-opacity:1; stroke-dasharray:2 2" transform="translate(205 185)  rotate(0 44.5 42.5)" d="" /></g></svg>